<?xml version="1.0" encoding="UTF-8"?>
<svg id="Layer_2" xmlns="http://www.w3.org/2000/svg" xmlns:xlink="http://www.w3.org/1999/xlink" viewBox="0 0 1441.09 853.21">
  <defs>
    <style>
      .cls-1 {
        fill: #f1f5ef;
      }

      .cls-2, .cls-3 {
        fill: #faa442;
      }

      .cls-4, .cls-5 {
        fill: #f9064f;
      }

      .cls-6, .cls-7, .cls-8 {
        fill: none;
      }

      .cls-7 {
        stroke: url(#New_Pattern_Swatch_5);
        stroke-width: 10px;
      }

      .cls-7, .cls-8 {
        stroke-miterlimit: 10;
      }

      .cls-8 {
        stroke: url(#New_Pattern_Swatch_6);
        stroke-width: 5px;
      }

      .cls-9 {
        fill: url(#New_Pattern_Swatch_6);
      }

      .cls-9, .cls-5, .cls-10, .cls-3 {
        font-size: 30px;
      }

      .cls-9, .cls-5, .cls-3 {
        font-family: FiraCode-Medium, 'Fira Code';
        font-weight: 500;
      }

      .cls-11, .cls-10 {
        fill: #fa6742;
      }

      .cls-12 {
        fill: #c7c7c7;
      }

      .cls-13 {
        fill: url(#New_Pattern_Swatch_5);
      }

      .cls-10 {
        font-family: FiraCode-Light, 'Fira Code';
        font-weight: 300;
      }
    </style>
    <pattern id="New_Pattern_Swatch_6" data-name="New Pattern Swatch 6" x="0" y="0" width="78" height="78" patternTransform="translate(-2076.06 -130)" patternUnits="userSpaceOnUse" viewBox="0 0 78 78">
      <g>
        <rect class="cls-6" width="78" height="78"/>
        <rect class="cls-1" width="78" height="78"/>
      </g>
    </pattern>
    <pattern id="New_Pattern_Swatch_5" data-name="New Pattern Swatch 5" x="0" y="0" width="78" height="78" patternTransform="translate(-2076.06 -130)" patternUnits="userSpaceOnUse" viewBox="0 0 78 78">
      <g>
        <rect class="cls-6" width="78" height="78"/>
        <rect class="cls-4" width="78" height="78"/>
      </g>
    </pattern>
  </defs>
  <g id="content">
    <text class="cls-9" transform="translate(436.52 837.83)"><tspan x="0" y="0">host</tspan></text>
    <text class="cls-9" transform="translate(913.06 837.83)"><tspan x="0" y="0">client</tspan></text>
    <line class="cls-8" x1="720.28" y1="371.5" x2="721.28" y2="826"/>
    <g>
      <rect class="cls-11" x="303.28" y="429" width="341" height="339.94" rx="12.6" ry="12.6"/>
      <rect class="cls-2" x="328.78" y="559" width="290" height="179" rx="12.6" ry="12.6"/>
      <g>
        <g>
          <rect class="cls-4" x="328.78" y="454" width="194" height="79" rx="12.6" ry="12.6"/>
          <text class="cls-9" transform="translate(351.31 505.83)"><tspan x="0" y="0">PartyKit</tspan></text>
        </g>
        <path class="cls-1" d="M614.21,464.45h0c-7.34-10.5-21.83-13.61-32.31-6.94l-18.4,11.73c-5.03,3.16-8.49,8.29-9.54,14.14-.88,4.87-.11,9.89,2.19,14.27-1.57,2.39-2.65,5.07-3.16,7.89-1.06,5.96.33,12.09,3.84,17.01,7.34,10.5,21.83,13.61,32.31,6.94l18.4-11.73c5.03-3.16,8.49-8.29,9.54-14.14.88-4.87.11-9.89-2.19-14.27,1.57-2.39,2.65-5.07,3.16-7.89,1.06-5.96-.33-12.09-3.84-17.01ZM608.94,479.51c-.11.58-.25,1.16-.44,1.72l-.35,1.06-.94-.69c-2.18-1.6-4.61-2.82-7.2-3.6l-.68-.21.06-.68c.08-.97-.18-1.94-.74-2.74-1.05-1.52-2.94-2.22-4.72-1.75-.4.11-.78.27-1.13.5l-18.4,11.73c-.91.57-1.54,1.5-1.73,2.56-.19,1.08.06,2.19.7,3.08,1.05,1.52,2.94,2.22,4.73,1.75.4-.11.78-.27,1.13-.5l7.02-4.47c1.15-.74,2.41-1.29,3.74-1.64,5.93-1.54,12.19.78,15.69,5.82,2.12,2.96,2.95,6.65,2.31,10.23-.63,3.51-2.71,6.6-5.74,8.5l-18.4,11.73c-1.16.74-2.42,1.29-3.74,1.64h0c-5.93,1.54-12.19-.78-15.69-5.82-2.12-2.96-2.95-6.65-2.31-10.23.11-.58.25-1.16.44-1.72l.35-1.06.94.69c2.18,1.6,4.61,2.82,7.2,3.6l.68.21-.06.68c-.08.97.18,1.94.74,2.74,1.05,1.52,2.94,2.22,4.72,1.75.4-.11.78-.27,1.13-.5l18.4-11.73c.91-.57,1.54-1.5,1.73-2.56.19-1.08-.06-2.19-.7-3.08-1.05-1.52-2.94-2.22-4.73-1.75-.4.11-.78.27-1.13.5l-7.02,4.48c-1.15.73-2.41,1.29-3.74,1.64-5.93,1.54-12.19-.78-15.69-5.82-2.12-2.96-2.95-6.65-2.31-10.23.63-3.51,2.71-6.6,5.74-8.5l18.4-11.73c1.16-.74,2.42-1.29,3.74-1.64,5.93-1.54,12.19.78,15.69,5.82,2.12,2.96,2.95,6.65,2.31,10.23Z"/>
      </g>
      <text class="cls-9" transform="translate(351.31 715.83)"><tspan x="0" y="0">remote</tspan></text>
    </g>
    <g>
      <rect class="cls-11" x="797.28" y="429" width="341" height="339.94" rx="12.6" ry="12.6"/>
      <rect class="cls-2" x="822.78" y="559" width="290" height="179" rx="12.6" ry="12.6"/>
      <g>
        <g>
          <rect class="cls-4" x="822.78" y="454" width="194" height="79" rx="12.6" ry="12.6"/>
          <text class="cls-9" transform="translate(845.31 505.83)"><tspan x="0" y="0">PartyKit</tspan></text>
        </g>
        <path class="cls-1" d="M1108.21,464.45h0c-7.34-10.5-21.83-13.61-32.31-6.94l-18.4,11.73c-5.03,3.16-8.49,8.29-9.54,14.14-.88,4.87-.11,9.89,2.19,14.27-1.57,2.39-2.65,5.07-3.16,7.89-1.06,5.96.33,12.09,3.84,17.01,7.34,10.5,21.83,13.61,32.31,6.94l18.4-11.73c5.03-3.16,8.49-8.29,9.54-14.14.88-4.87.11-9.89-2.19-14.27,1.57-2.39,2.65-5.07,3.16-7.89,1.06-5.96-.33-12.09-3.84-17.01ZM1102.94,479.51c-.11.58-.25,1.16-.44,1.72l-.35,1.06-.94-.69c-2.18-1.6-4.61-2.82-7.2-3.6l-.68-.21.06-.68c.08-.97-.18-1.94-.74-2.74-1.05-1.52-2.94-2.22-4.72-1.75-.4.11-.78.27-1.13.5l-18.4,11.73c-.91.57-1.54,1.5-1.73,2.56-.19,1.08.06,2.19.7,3.08,1.05,1.52,2.94,2.22,4.73,1.75.4-.11.78-.27,1.13-.5l7.02-4.47c1.15-.74,2.41-1.29,3.74-1.64,5.93-1.54,12.19.78,15.69,5.82,2.12,2.96,2.95,6.65,2.31,10.23-.63,3.51-2.71,6.6-5.74,8.5l-18.4,11.73c-1.16.74-2.42,1.29-3.74,1.64h0c-5.93,1.54-12.19-.78-15.69-5.82-2.12-2.96-2.95-6.65-2.31-10.23.11-.58.25-1.16.44-1.72l.35-1.06.94.69c2.18,1.6,4.61,2.82,7.2,3.6l.68.21-.06.68c-.08.97.18,1.94.74,2.74,1.05,1.52,2.94,2.22,4.72,1.75.4-.11.78-.27,1.13-.5l18.4-11.73c.91-.57,1.54-1.5,1.73-2.56.19-1.08-.06-2.19-.7-3.08-1.05-1.52-2.94-2.22-4.73-1.75-.4.11-.78.27-1.13.5l-7.02,4.48c-1.15.73-2.41,1.29-3.74,1.64-5.93,1.54-12.19-.78-15.69-5.82-2.12-2.96-2.95-6.65-2.31-10.23.63-3.51,2.71-6.6,5.74-8.5l18.4-11.73c1.16-.74,2.42-1.29,3.74-1.64,5.93-1.54,12.19.78,15.69,5.82,2.12,2.96,2.95,6.65,2.31,10.23Z"/>
      </g>
      <text class="cls-9" transform="translate(845.31 715.83)"><tspan x="0" y="0">remote</tspan></text>
    </g>
    <rect class="cls-4" x="103.14" y="95" width="1235.11" height="79" rx="12.6" ry="12.6"/>
    <rect class="cls-2" x="103.14" width="1235.11" height="79" rx="12.6" ry="12.6"/>
    <text class="cls-9" transform="translate(644.75 144.57)"><tspan x="0" y="0">PartyKit</tspan></text>
    <text class="cls-9" transform="translate(157.73 51.49)"><tspan x="0" y="0">Cloudflare Durable Object</tspan></text>
    <g>
      <rect class="cls-1" x="955.94" y="11" width="372" height="57" rx="12.6" ry="12.6"/>
      <text class="cls-3" transform="translate(971.94 51.49)"><tspan x="0" y="0">current slide </tspan></text>
      <text class="cls-5" transform="translate(1269.02 51.49)"><tspan x="0" y="0">24</tspan></text>
    </g>
    <g>
      <line class="cls-7" x1="425.94" y1="180.59" x2="425.94" y2="454"/>
      <polygon class="cls-13" points="397.32 203.79 402.44 208.56 425.94 183.28 449.44 208.56 454.57 203.79 425.94 173 397.32 203.79"/>
    </g>
    <g>
      <line class="cls-7" x1="915.94" y1="446.41" x2="915.94" y2="173"/>
      <polygon class="cls-13" points="944.57 423.21 939.45 418.44 915.95 443.72 892.45 418.44 887.32 423.21 915.95 454 944.57 423.21"/>
    </g>
    <text class="cls-9" transform="translate(133.86 737.83)"><tspan x="0" y="0">/slides</tspan></text>
    <g>
      <path class="cls-12" d="M320.98,303.5c.51,0,.98-.09,1.42-.27.44-.18.85-.4,1.25-.68l1.07,1.48c-.47.4-1.04.73-1.72.98s-1.37.37-2.09.37c-1.11,0-2.06-.23-2.85-.7-.79-.47-1.39-1.12-1.8-1.97-.41-.84-.62-1.83-.62-2.97s.21-2.08.63-2.95c.42-.86,1.03-1.55,1.82-2.05.79-.5,1.75-.75,2.86-.75,1.45,0,2.7.43,3.75,1.3l-1.06,1.45c-.42-.29-.86-.52-1.3-.67s-.9-.23-1.35-.23c-.86,0-1.56.31-2.1.94s-.81,1.62-.81,2.96.27,2.32.82,2.89c.55.57,1.24.86,2.08.86Z"/>
      <path class="cls-12" d="M330.37,294.28v7.57c0,.64.13,1.1.38,1.37.26.27.64.41,1.16.41.49,0,.97-.15,1.43-.44s.82-.65,1.09-1.08v-7.84h2.3v10.83h-1.98l-.14-1.38c-.4.54-.91.95-1.53,1.24-.62.28-1.25.43-1.89.43-1.05,0-1.84-.29-2.35-.87-.51-.58-.77-1.37-.77-2.38v-7.86h2.3Z"/>
      <path class="cls-12" d="M340.48,305.11v-1.64h1.59v-7.56h-1.59v-1.63h3.34l.42,2.51c.4-.91.9-1.6,1.5-2.08.6-.48,1.37-.71,2.31-.71.32,0,.61.03.87.08.26.05.51.12.76.2l-.39,3.99h-1.64v-2.21c-.77.03-1.43.33-1.98.92-.55.58-.99,1.41-1.31,2.47v4.02h2.18v1.64h-6.07Z"/>
      <path class="cls-12" d="M352.79,305.11v-1.64h1.59v-7.56h-1.59v-1.63h3.34l.42,2.51c.4-.91.9-1.6,1.5-2.08.6-.48,1.37-.71,2.31-.71.32,0,.61.03.87.08.26.05.51.12.76.2l-.39,3.99h-1.64v-2.21c-.77.03-1.43.33-1.98.92-.55.58-.99,1.41-1.31,2.47v4.02h2.18v1.64h-6.07Z"/>
      <path class="cls-12" d="M366.9,300.43c.07,1.11.38,1.92.94,2.42s1.23.75,2.02.75c.53,0,1.02-.08,1.47-.25.45-.16.91-.4,1.37-.7l1,1.37c-.51.41-1.1.74-1.77.98s-1.4.37-2.17.37c-1.13,0-2.08-.24-2.86-.72s-1.36-1.15-1.76-2c-.4-.85-.6-1.84-.6-2.96s.2-2.06.59-2.92c.4-.86.96-1.54,1.7-2.04.74-.5,1.62-.75,2.65-.75,1.44,0,2.57.48,3.41,1.45.84.96,1.26,2.29,1.26,3.97,0,.18,0,.37-.02.55,0,.18-.02.34-.04.48h-7.18ZM369.49,295.7c-.72,0-1.31.26-1.79.77-.47.51-.74,1.31-.81,2.4h5.02c-.02-1.02-.24-1.8-.65-2.35-.41-.55-1-.82-1.77-.82Z"/>
      <path class="cls-12" d="M377.3,305.11v-10.83h1.98l.17,1.4c.45-.55.98-.97,1.6-1.26.62-.29,1.25-.44,1.9-.44,1.01,0,1.77.28,2.27.85.5.57.75,1.36.75,2.37v7.9h-2.3v-6.76c0-.94-.09-1.61-.28-2.01-.19-.4-.61-.6-1.27-.6-.53,0-1.01.16-1.44.49-.43.32-.8.69-1.09,1.1v7.77h-2.3Z"/>
      <path class="cls-12" d="M398.66,304.54c-.4.25-.87.46-1.43.62s-1.13.24-1.73.24c-1.26,0-2.21-.33-2.87-.98-.65-.65-.98-1.51-.98-2.58v-5.88h-2.41v-1.67h2.41v-2.42l2.3-.28v2.7h3.65l-.26,1.67h-3.39v5.86c0,.58.15,1.01.44,1.3.29.28.77.43,1.43.43.4,0,.76-.05,1.09-.14s.64-.22.92-.37l.83,1.52Z"/>
      <path class="cls-12" d="M270.47,327.62c.72,0,1.29-.13,1.71-.38.42-.26.64-.61.64-1.06,0-.29-.06-.54-.19-.75-.12-.21-.37-.4-.74-.57s-.93-.36-1.68-.55c-.71-.18-1.33-.4-1.87-.66-.54-.25-.95-.58-1.25-.98s-.44-.92-.44-1.56c0-.93.39-1.68,1.17-2.25.78-.57,1.83-.86,3.16-.86.91,0,1.7.12,2.38.36s1.25.54,1.73.89l-.96,1.45c-.42-.28-.89-.51-1.39-.69-.5-.18-1.07-.27-1.7-.27-.73,0-1.26.11-1.58.33-.32.22-.48.51-.48.87,0,.27.08.5.24.68.16.18.44.35.84.5s.96.33,1.68.53c.7.19,1.32.42,1.84.68.52.26.93.6,1.22,1.03.29.43.44.98.44,1.67,0,.78-.23,1.42-.68,1.91-.45.5-1.04.86-1.76,1.1-.72.24-1.5.35-2.34.35-1,0-1.87-.15-2.6-.44-.73-.29-1.35-.65-1.85-1.09l1.22-1.39c.42.34.91.62,1.46.84.55.22,1.14.32,1.77.32Z"/>
      <path class="cls-12" d="M283.6,313.93v12.23c0,.5.15.85.46,1.06.3.21.7.31,1.18.31.31,0,.6-.03.89-.1.28-.06.56-.15.83-.26l.58,1.6c-.32.16-.72.31-1.18.43-.47.12-1,.18-1.61.18-1.09,0-1.93-.31-2.54-.92-.61-.62-.91-1.45-.91-2.51v-10.33h-3.27v-1.69h5.57Z"/>
      <path class="cls-12" d="M297.07,318.28v9.15h2.94v1.68h-8.48v-1.68h3.24v-7.47h-3.14v-1.68h5.44ZM295.47,312.98c.45,0,.82.14,1.09.41.28.27.42.62.42,1.03s-.14.76-.42,1.04c-.28.28-.64.42-1.09.42s-.8-.14-1.08-.42c-.28-.28-.42-.63-.42-1.04s.14-.75.42-1.03.64-.41,1.08-.41Z"/>
      <path class="cls-12" d="M309.82,313.67l2.3.26v15.18h-2.02l-.16-1.33c-.37.51-.81.91-1.32,1.19s-1.09.42-1.72.42c-.93,0-1.69-.24-2.29-.71s-1.04-1.14-1.34-1.99c-.29-.85-.44-1.85-.44-2.98s.17-2.08.51-2.94c.34-.86.83-1.53,1.47-2.03s1.4-.74,2.3-.74c1.12,0,2.02.39,2.73,1.18v-5.5ZM307.69,319.76c-.77,0-1.37.32-1.8.96-.43.64-.65,1.63-.65,2.98s.2,2.38.59,3c.39.62.95.93,1.66.93.52,0,.97-.15,1.35-.45s.71-.66.97-1.09v-5.13c-.27-.38-.58-.68-.93-.89s-.75-.31-1.19-.31Z"/>
      <path class="cls-12" d="M317.67,324.43c.07,1.11.38,1.92.94,2.42s1.23.75,2.02.75c.53,0,1.02-.08,1.47-.25.45-.16.91-.4,1.37-.7l1,1.37c-.51.41-1.1.74-1.77.98s-1.4.37-2.17.37c-1.13,0-2.08-.24-2.86-.72s-1.36-1.15-1.76-2c-.4-.85-.6-1.84-.6-2.96s.2-2.06.59-2.92c.4-.86.96-1.54,1.7-2.04.74-.5,1.62-.75,2.65-.75,1.44,0,2.57.48,3.41,1.45.84.96,1.26,2.29,1.26,3.97,0,.18,0,.37-.02.55,0,.18-.02.34-.04.48h-7.18ZM320.26,319.7c-.72,0-1.31.26-1.79.77-.47.51-.74,1.31-.81,2.4h5.02c-.02-1.02-.24-1.8-.65-2.35-.41-.55-1-.82-1.77-.82Z"/>
      <path class="cls-12" d="M346.3,318.28v9.15h2.94v1.68h-8.48v-1.68h3.24v-7.47h-3.14v-1.68h5.44ZM344.7,312.98c.45,0,.82.14,1.09.41.28.27.42.62.42,1.03s-.14.76-.42,1.04c-.28.28-.64.42-1.09.42s-.8-.14-1.08-.42c-.28-.28-.42-.63-.42-1.04s.14-.75.42-1.03.64-.41,1.08-.41Z"/>
      <path class="cls-12" d="M352.69,329.11v-10.83h1.98l.17,1.4c.45-.55.98-.97,1.6-1.26.62-.29,1.25-.44,1.9-.44,1.01,0,1.77.28,2.27.85.5.57.75,1.36.75,2.37v7.9h-2.3v-6.76c0-.94-.09-1.61-.28-2.01-.19-.4-.61-.6-1.27-.6-.53,0-1.01.16-1.44.49-.43.32-.8.69-1.09,1.1v7.77h-2.3Z"/>
      <path class="cls-12" d="M371.35,313.67l2.3.26v15.18h-2.02l-.16-1.33c-.37.51-.81.91-1.32,1.19s-1.09.42-1.72.42c-.93,0-1.69-.24-2.29-.71s-1.04-1.14-1.34-1.99c-.29-.85-.44-1.85-.44-2.98s.17-2.08.51-2.94c.34-.86.83-1.53,1.47-2.03s1.4-.74,2.3-.74c1.12,0,2.02.39,2.73,1.18v-5.5ZM369.23,319.76c-.77,0-1.37.32-1.8.96-.43.64-.65,1.63-.65,2.98s.2,2.38.59,3c.39.62.95.93,1.66.93.52,0,.97-.15,1.35-.45s.71-.66.97-1.09v-5.13c-.27-.38-.58-.68-.93-.89s-.75-.31-1.19-.31Z"/>
      <path class="cls-12" d="M379.21,324.43c.07,1.11.38,1.92.94,2.42s1.23.75,2.02.75c.53,0,1.02-.08,1.47-.25.45-.16.91-.4,1.37-.7l1,1.37c-.51.41-1.1.74-1.77.98s-1.4.37-2.17.37c-1.13,0-2.08-.24-2.86-.72s-1.36-1.15-1.76-2c-.4-.85-.6-1.84-.6-2.96s.2-2.06.59-2.92c.4-.86.96-1.54,1.7-2.04.74-.5,1.62-.75,2.65-.75,1.44,0,2.57.48,3.41,1.45.84.96,1.26,2.29,1.26,3.97,0,.18,0,.37-.02.55,0,.18-.02.34-.04.48h-7.18ZM381.8,319.7c-.72,0-1.31.26-1.79.77-.47.51-.74,1.31-.81,2.4h5.02c-.02-1.02-.24-1.8-.65-2.35-.41-.55-1-.82-1.77-.82Z"/>
      <path class="cls-12" d="M391.21,329.11h-2.54l3.89-5.71-3.46-5.12h2.65l2.22,3.81,2.21-3.81h2.52l-3.38,5.03,3.9,5.81h-2.7l-2.66-4.42-2.65,4.42Z"/>
    </g>
    <g>
      <path class="cls-12" d="M947.99,303.5c.51,0,.98-.09,1.42-.27.44-.18.85-.4,1.25-.68l1.07,1.48c-.47.4-1.04.73-1.72.98s-1.37.37-2.09.37c-1.11,0-2.06-.23-2.85-.7-.79-.47-1.39-1.12-1.8-1.97-.41-.84-.62-1.83-.62-2.97s.21-2.08.63-2.95c.42-.86,1.03-1.55,1.82-2.05.79-.5,1.75-.75,2.86-.75,1.45,0,2.7.43,3.75,1.3l-1.06,1.45c-.42-.29-.86-.52-1.3-.67s-.9-.23-1.35-.23c-.86,0-1.56.31-2.1.94s-.81,1.62-.81,2.96.27,2.32.82,2.89c.55.57,1.24.86,2.08.86Z"/>
      <path class="cls-12" d="M957.38,294.28v7.57c0,.64.13,1.1.38,1.37.26.27.64.41,1.16.41.49,0,.97-.15,1.43-.44s.82-.65,1.09-1.08v-7.84h2.3v10.83h-1.98l-.14-1.38c-.4.54-.91.95-1.53,1.24-.62.28-1.25.43-1.89.43-1.05,0-1.84-.29-2.35-.87-.51-.58-.77-1.37-.77-2.38v-7.86h2.3Z"/>
      <path class="cls-12" d="M967.49,305.11v-1.64h1.59v-7.56h-1.59v-1.63h3.34l.42,2.51c.4-.91.9-1.6,1.5-2.08.6-.48,1.37-.71,2.31-.71.32,0,.61.03.87.08.26.05.51.12.76.2l-.39,3.99h-1.64v-2.21c-.77.03-1.43.33-1.98.92-.55.58-.99,1.41-1.31,2.47v4.02h2.18v1.64h-6.07Z"/>
      <path class="cls-12" d="M979.8,305.11v-1.64h1.59v-7.56h-1.59v-1.63h3.34l.42,2.51c.4-.91.9-1.6,1.5-2.08.6-.48,1.37-.71,2.31-.71.32,0,.61.03.87.08.26.05.51.12.76.2l-.39,3.99h-1.64v-2.21c-.77.03-1.43.33-1.98.92-.55.58-.99,1.41-1.31,2.47v4.02h2.18v1.64h-6.07Z"/>
      <path class="cls-12" d="M993.91,300.43c.07,1.11.38,1.92.94,2.42s1.23.75,2.02.75c.53,0,1.02-.08,1.47-.25.45-.16.91-.4,1.37-.7l1,1.37c-.51.41-1.1.74-1.77.98s-1.4.37-2.17.37c-1.13,0-2.08-.24-2.86-.72s-1.36-1.15-1.76-2c-.4-.85-.6-1.84-.6-2.96s.2-2.06.59-2.92c.4-.86.96-1.54,1.7-2.04.74-.5,1.62-.75,2.65-.75,1.44,0,2.57.48,3.41,1.45.84.96,1.26,2.29,1.26,3.97,0,.18,0,.37-.02.55,0,.18-.02.34-.04.48h-7.18ZM996.49,295.7c-.72,0-1.31.26-1.79.77-.47.51-.74,1.31-.81,2.4h5.02c-.02-1.02-.24-1.8-.65-2.35-.41-.55-1-.82-1.77-.82Z"/>
      <path class="cls-12" d="M1004.31,305.11v-10.83h1.98l.17,1.4c.45-.55.98-.97,1.6-1.26.62-.29,1.25-.44,1.9-.44,1.01,0,1.77.28,2.27.85.5.57.75,1.36.75,2.37v7.9h-2.3v-6.76c0-.94-.09-1.61-.28-2.01-.19-.4-.61-.6-1.27-.6-.53,0-1.01.16-1.44.49-.43.32-.8.69-1.09,1.1v7.77h-2.3Z"/>
      <path class="cls-12" d="M1025.66,304.54c-.4.25-.87.46-1.43.62s-1.13.24-1.73.24c-1.26,0-2.21-.33-2.87-.98-.65-.65-.98-1.51-.98-2.58v-5.88h-2.41v-1.67h2.41v-2.42l2.3-.28v2.7h3.65l-.26,1.67h-3.39v5.86c0,.58.15,1.01.44,1.3.29.28.77.43,1.43.43.4,0,.76-.05,1.09-.14s.64-.22.92-.37l.83,1.52Z"/>
      <path class="cls-12" d="M946.71,327.62c.72,0,1.29-.13,1.71-.38.42-.26.64-.61.64-1.06,0-.29-.06-.54-.19-.75-.12-.21-.37-.4-.74-.57s-.93-.36-1.68-.55c-.71-.18-1.33-.4-1.87-.66-.54-.25-.95-.58-1.25-.98s-.44-.92-.44-1.56c0-.93.39-1.68,1.17-2.25.78-.57,1.83-.86,3.16-.86.91,0,1.7.12,2.38.36s1.25.54,1.73.89l-.96,1.45c-.42-.28-.89-.51-1.39-.69-.5-.18-1.07-.27-1.7-.27-.73,0-1.26.11-1.58.33-.32.22-.48.51-.48.87,0,.27.08.5.24.68.16.18.44.35.84.5s.96.33,1.68.53c.7.19,1.32.42,1.84.68.52.26.93.6,1.22,1.03.29.43.44.98.44,1.67,0,.78-.23,1.42-.68,1.91-.45.5-1.04.86-1.76,1.1-.72.24-1.5.35-2.34.35-1,0-1.87-.15-2.6-.44-.73-.29-1.35-.65-1.85-1.09l1.22-1.39c.42.34.91.62,1.46.84.55.22,1.14.32,1.77.32Z"/>
      <path class="cls-12" d="M959.84,313.93v12.23c0,.5.15.85.46,1.06.3.21.7.31,1.18.31.31,0,.6-.03.89-.1.28-.06.56-.15.83-.26l.58,1.6c-.32.16-.72.31-1.18.43-.47.12-1,.18-1.61.18-1.09,0-1.93-.31-2.54-.92-.61-.62-.91-1.45-.91-2.51v-10.33h-3.27v-1.69h5.57Z"/>
      <path class="cls-12" d="M973.3,318.28v9.15h2.94v1.68h-8.48v-1.68h3.24v-7.47h-3.14v-1.68h5.44ZM971.7,312.98c.45,0,.82.14,1.09.41.28.27.42.62.42,1.03s-.14.76-.42,1.04c-.28.28-.64.42-1.09.42s-.8-.14-1.08-.42c-.28-.28-.42-.63-.42-1.04s.14-.75.42-1.03.64-.41,1.08-.41Z"/>
      <path class="cls-12" d="M986.05,313.67l2.3.26v15.18h-2.02l-.16-1.33c-.37.51-.81.91-1.32,1.19s-1.09.42-1.72.42c-.93,0-1.69-.24-2.29-.71s-1.04-1.14-1.34-1.99c-.29-.85-.44-1.85-.44-2.98s.17-2.08.51-2.94c.34-.86.83-1.53,1.47-2.03s1.4-.74,2.3-.74c1.12,0,2.02.39,2.73,1.18v-5.5ZM983.93,319.76c-.77,0-1.37.32-1.8.96-.43.64-.65,1.63-.65,2.98s.2,2.38.59,3c.39.62.95.93,1.66.93.52,0,.97-.15,1.35-.45s.71-.66.97-1.09v-5.13c-.27-.38-.58-.68-.93-.89s-.75-.31-1.19-.31Z"/>
      <path class="cls-12" d="M993.91,324.43c.07,1.11.38,1.92.94,2.42s1.23.75,2.02.75c.53,0,1.02-.08,1.47-.25.45-.16.91-.4,1.37-.7l1,1.37c-.51.41-1.1.74-1.77.98s-1.4.37-2.17.37c-1.13,0-2.08-.24-2.86-.72s-1.36-1.15-1.76-2c-.4-.85-.6-1.84-.6-2.96s.2-2.06.59-2.92c.4-.86.96-1.54,1.7-2.04.74-.5,1.62-.75,2.65-.75,1.44,0,2.57.48,3.41,1.45.84.96,1.26,2.29,1.26,3.97,0,.18,0,.37-.02.55,0,.18-.02.34-.04.48h-7.18ZM996.49,319.7c-.72,0-1.31.26-1.79.77-.47.51-.74,1.31-.81,2.4h5.02c-.02-1.02-.24-1.8-.65-2.35-.41-.55-1-.82-1.77-.82Z"/>
      <path class="cls-12" d="M1022.53,318.28v9.15h2.94v1.68h-8.48v-1.68h3.24v-7.47h-3.14v-1.68h5.44ZM1020.93,312.98c.45,0,.82.14,1.09.41.28.27.42.62.42,1.03s-.14.76-.42,1.04c-.28.28-.64.42-1.09.42s-.8-.14-1.08-.42c-.28-.28-.42-.63-.42-1.04s.14-.75.42-1.03.64-.41,1.08-.41Z"/>
      <path class="cls-12" d="M1028.92,329.11v-10.83h1.98l.17,1.4c.45-.55.98-.97,1.6-1.26.62-.29,1.25-.44,1.9-.44,1.01,0,1.77.28,2.27.85.5.57.75,1.36.75,2.37v7.9h-2.3v-6.76c0-.94-.09-1.61-.28-2.01-.19-.4-.61-.6-1.27-.6-.53,0-1.01.16-1.44.49-.43.32-.8.69-1.09,1.1v7.77h-2.3Z"/>
      <path class="cls-12" d="M1047.59,313.67l2.3.26v15.18h-2.02l-.16-1.33c-.37.51-.81.91-1.32,1.19s-1.09.42-1.72.42c-.93,0-1.69-.24-2.29-.71s-1.04-1.14-1.34-1.99c-.29-.85-.44-1.85-.44-2.98s.17-2.08.51-2.94c.34-.86.83-1.53,1.47-2.03s1.4-.74,2.3-.74c1.12,0,2.02.39,2.73,1.18v-5.5ZM1045.47,319.76c-.77,0-1.37.32-1.8.96-.43.64-.65,1.63-.65,2.98s.2,2.38.59,3c.39.62.95.93,1.66.93.52,0,.97-.15,1.35-.45s.71-.66.97-1.09v-5.13c-.27-.38-.58-.68-.93-.89s-.75-.31-1.19-.31Z"/>
      <path class="cls-12" d="M1055.45,324.43c.07,1.11.38,1.92.94,2.42s1.23.75,2.02.75c.53,0,1.02-.08,1.47-.25.45-.16.91-.4,1.37-.7l1,1.37c-.51.41-1.1.74-1.77.98s-1.4.37-2.17.37c-1.13,0-2.08-.24-2.86-.72s-1.36-1.15-1.76-2c-.4-.85-.6-1.84-.6-2.96s.2-2.06.59-2.92c.4-.86.96-1.54,1.7-2.04.74-.5,1.62-.75,2.65-.75,1.44,0,2.57.48,3.41,1.45.84.96,1.26,2.29,1.26,3.97,0,.18,0,.37-.02.55,0,.18-.02.34-.04.48h-7.18ZM1058.03,319.7c-.72,0-1.31.26-1.79.77-.47.51-.74,1.31-.81,2.4h5.02c-.02-1.02-.24-1.8-.65-2.35-.41-.55-1-.82-1.77-.82Z"/>
      <path class="cls-12" d="M1067.45,329.11h-2.54l3.89-5.71-3.46-5.12h2.65l2.22,3.81,2.21-3.81h2.52l-3.38,5.03,3.9,5.81h-2.7l-2.66-4.42-2.65,4.42Z"/>
    </g>
    <text class="cls-9" transform="translate(1178 737.83)"><tspan x="0" y="0">/present/[id]</tspan></text>
    <text class="cls-9" transform="translate(1178 689.83)"><tspan x="0" y="0">/remote/[id]</tspan></text>
    <text class="cls-9" transform="translate(1178 641.83)"><tspan x="0" y="0">/slides/[id]</tspan></text>
    <text class="cls-10" transform="translate(369.94 606.63)"><tspan x="0" y="0">generate id</tspan></text>
  </g>
</svg>