<?xml version="1.0" encoding="UTF-8"?>
<svg xmlns="http://www.w3.org/2000/svg" version="1.1" xmlns:xlink="http://www.w3.org/1999/xlink" viewBox="0 0 1235.3 854.5">
  <defs>
    <style>
      .cls-1 {
        fill: url(#New_Pattern_Swatch_3);
      }

      .cls-2, .cls-3, .cls-4, .cls-5, .cls-6, .cls-7, .cls-8, .cls-9, .cls-10, .cls-11, .cls-12, .cls-13, .cls-14, .cls-15, .cls-16, .cls-17, .cls-18 {
        isolation: isolate;
      }

      .cls-2, .cls-3, .cls-4, .cls-5, .cls-6, .cls-7, .cls-8, .cls-9, .cls-10, .cls-12, .cls-13, .cls-14, .cls-15, .cls-16, .cls-17, .cls-18 {
        font-size: 30px;
      }

      .cls-2, .cls-3, .cls-4, .cls-5, .cls-6, .cls-7, .cls-8, .cls-9, .cls-12, .cls-13, .cls-14, .cls-15, .cls-16, .cls-17, .cls-18 {
        font-family: FiraCode-Medium, 'Fira Code';
        font-weight: 500;
      }

      .cls-2, .cls-19 {
        fill: #f9064f;
      }

      .cls-20 {
        fill: #f1f5ef;
      }

      .cls-3, .cls-21 {
        fill: #faa442;
      }

      .cls-4 {
        fill: url(#New_Pattern_Swatch_6-14);
      }

      .cls-5 {
        fill: url(#New_Pattern_Swatch_6-10);
      }

      .cls-6 {
        fill: url(#New_Pattern_Swatch_6-4);
      }

      .cls-7 {
        fill: url(#New_Pattern_Swatch_6-8);
      }

      .cls-22, .cls-23, .cls-24, .cls-25 {
        fill: none;
      }

      .cls-8 {
        fill: url(#New_Pattern_Swatch_6-7);
      }

      .cls-9 {
        fill: url(#New_Pattern_Swatch_6-13);
      }

      .cls-23 {
        stroke: url(#New_Pattern_Swatch_5);
      }

      .cls-23, .cls-24 {
        stroke-width: 10px;
      }

      .cls-23, .cls-24, .cls-25 {
        stroke-miterlimit: 10;
      }

      .cls-10 {
        font-family: FiraCode-Light, 'Fira Code';
        font-weight: 300;
      }

      .cls-10, .cls-26 {
        fill: #fa6742;
      }

      .cls-12 {
        fill: url(#New_Pattern_Swatch_6-2);
      }

      .cls-24 {
        stroke: url(#New_Pattern_Swatch_3);
      }

      .cls-13 {
        fill: url(#New_Pattern_Swatch_6-3);
      }

      .cls-14 {
        fill: url(#New_Pattern_Swatch_6-5);
      }

      .cls-27 {
        fill: url(#New_Pattern_Swatch_5);
      }

      .cls-15 {
        fill: url(#New_Pattern_Swatch_6-12);
      }

      .cls-25 {
        stroke: url(#New_Pattern_Swatch_6-6);
        stroke-width: 5px;
      }

      .cls-16 {
        fill: url(#New_Pattern_Swatch_6-11);
      }

      .cls-17 {
        fill: url(#New_Pattern_Swatch_6-9);
      }

      .cls-18 {
        fill: url(#New_Pattern_Swatch_6);
      }
    </style>
    <pattern id="New_Pattern_Swatch_3" data-name="New Pattern Swatch 3" x="0" y="0" width="78" height="78" patternTransform="translate(-4009 -15138.5) scale(1 -1)" patternUnits="userSpaceOnUse" viewBox="0 0 78 78">
      <g>
        <rect class="cls-22" width="78" height="78"/>
        <g>
          <rect class="cls-22" width="78" height="78"/>
          <rect class="cls-21" width="78" height="78"/>
        </g>
      </g>
    </pattern>
    <pattern id="New_Pattern_Swatch_5" data-name="New Pattern Swatch 5" x="0" y="0" width="78" height="78" patternTransform="translate(-4009 -15138.5) scale(1 -1)" patternUnits="userSpaceOnUse" viewBox="0 0 78 78">
      <g>
        <rect class="cls-22" width="78" height="78"/>
        <g>
          <rect class="cls-22" width="78" height="78"/>
          <rect class="cls-19" width="78" height="78"/>
        </g>
      </g>
    </pattern>
    <pattern id="New_Pattern_Swatch_6" data-name="New Pattern Swatch 6" x="0" y="0" width="78" height="78" patternTransform="translate(-3960.5 -15524.3) scale(1 -1)" patternUnits="userSpaceOnUse" viewBox="0 0 78 78">
      <g>
        <rect class="cls-22" width="78" height="78"/>
        <g>
          <rect class="cls-22" width="78" height="78"/>
          <rect class="cls-20" width="78" height="78"/>
        </g>
      </g>
    </pattern>
    <pattern id="New_Pattern_Swatch_6-2" data-name="New Pattern Swatch 6" patternTransform="translate(-3875.4 -15856.3) scale(1 -1)" xlink:href="#New_Pattern_Swatch_6"/>
    <pattern id="New_Pattern_Swatch_6-3" data-name="New Pattern Swatch 6" patternTransform="translate(-3628 -15926.3) scale(1 -1)" xlink:href="#New_Pattern_Swatch_6"/>
    <pattern id="New_Pattern_Swatch_6-4" data-name="New Pattern Swatch 6" patternTransform="translate(-3187.1 -15963.3) scale(1 -1)" xlink:href="#New_Pattern_Swatch_6"/>
    <pattern id="New_Pattern_Swatch_6-5" data-name="New Pattern Swatch 6" patternTransform="translate(-3398.9 -15856.3) scale(1 -1)" xlink:href="#New_Pattern_Swatch_6"/>
    <pattern id="New_Pattern_Swatch_6-6" data-name="New Pattern Swatch 6" patternTransform="translate(-4009 -15138.5) scale(1 -1)" xlink:href="#New_Pattern_Swatch_6"/>
    <pattern id="New_Pattern_Swatch_6-7" data-name="New Pattern Swatch 6" patternTransform="translate(-3960.6 -15734.3) scale(1 -1)" xlink:href="#New_Pattern_Swatch_6"/>
    <pattern id="New_Pattern_Swatch_6-8" data-name="New Pattern Swatch 6" patternTransform="translate(-3466.6 -15524.3) scale(1 -1)" xlink:href="#New_Pattern_Swatch_6"/>
    <pattern id="New_Pattern_Swatch_6-9" data-name="New Pattern Swatch 6" patternTransform="translate(-3466.6 -15734.3) scale(1 -1)" xlink:href="#New_Pattern_Swatch_6"/>
    <pattern id="New_Pattern_Swatch_6-10" data-name="New Pattern Swatch 6" patternTransform="translate(-3467.2 -15283.1) scale(1 -1)" xlink:href="#New_Pattern_Swatch_6"/>
    <pattern id="New_Pattern_Swatch_6-11" data-name="New Pattern Swatch 6" patternTransform="translate(-3954.2 -15190) scale(1 -1)" xlink:href="#New_Pattern_Swatch_6"/>
    <pattern id="New_Pattern_Swatch_6-12" data-name="New Pattern Swatch 6" patternTransform="translate(-2999.9 -15856.3) scale(1 -1)" xlink:href="#New_Pattern_Swatch_6"/>
    <pattern id="New_Pattern_Swatch_6-13" data-name="New Pattern Swatch 6" patternTransform="translate(-3067.6 -15524.3) scale(1 -1)" xlink:href="#New_Pattern_Swatch_6"/>
    <pattern id="New_Pattern_Swatch_6-14" data-name="New Pattern Swatch 6" patternTransform="translate(-3067.6 -15734.3) scale(1 -1)" xlink:href="#New_Pattern_Swatch_6"/>
  </defs>
  <!-- Generator: Adobe Illustrator 28.7.1, SVG Export Plug-In . SVG Version: 1.2.0 Build 142)  -->
  <g>
    <g id="Layer_2">
      <g id="content">
        <g>
          <polyline class="cls-24" points="1064.8 753 1064.8 849.5 260.5 849.5 260.5 618"/>
          <polygon class="cls-1" points="1040.3 772.9 1044.7 777 1064.8 755.3 1085 777 1089.4 772.9 1064.8 746.5 1040.3 772.9"/>
        </g>
        <g>
          <polyline class="cls-23" points="664.8 753 664.8 809.5 300.5 809.5 300.5 618"/>
          <polygon class="cls-27" points="640.3 772.9 644.7 777 664.8 755.3 685 777 689.4 772.9 664.8 746.5 640.3 772.9"/>
        </g>
        <rect class="cls-26" x=".3" y="309" width="341" height="339.9" rx="12.6" ry="12.6"/>
        <g>
          <rect class="cls-19" x="26" y="334" width="194" height="79" rx="12.6" ry="12.6"/>
          <g class="cls-11">
            <text class="cls-18" transform="translate(48.5 385.8)"><tspan x="0" y="0">PartyKit</tspan></text>
          </g>
        </g>
        <g>
          <g>
            <line class="cls-23" x1="92" y1="326.4" x2="92" y2="173"/>
            <polygon class="cls-27" points="120.6 303.2 115.5 298.4 92 323.7 68.5 298.4 63.4 303.2 92 334 120.6 303.2"/>
          </g>
          <g>
            <line class="cls-23" x1="154" y1="180.6" x2="154" y2="334"/>
            <polygon class="cls-27" points="125.4 203.8 130.5 208.6 154 183.3 177.5 208.6 182.6 203.8 154 173 125.4 203.8"/>
          </g>
        </g>
        <g class="cls-11">
          <text class="cls-12" transform="translate(133.6 717.8)"><tspan x="0" y="0">host</tspan></text>
        </g>
        <g class="cls-11">
          <text class="cls-13" transform="translate(381 787.8)"><tspan x="0" y="0">id + secret</tspan></text>
        </g>
        <g class="cls-11">
          <text class="cls-6" transform="translate(821.9 824.8)"><tspan x="0" y="0">id only</tspan></text>
        </g>
        <g class="cls-11">
          <text class="cls-14" transform="translate(610.1 717.8)"><tspan x="0" y="0">client</tspan></text>
        </g>
        <line class="cls-25" x1="417.3" y1="251.5" x2="418.3" y2="706"/>
        <rect class="cls-21" x="25.8" y="439" width="290" height="179" rx="12.6" ry="12.6"/>
        <g class="cls-11">
          <text class="cls-8" transform="translate(48.4 595.8)"><tspan x="0" y="0">remote</tspan></text>
        </g>
        <rect class="cls-26" x="494.3" y="309" width="341" height="339.9" rx="12.6" ry="12.6"/>
        <rect class="cls-21" x="519.8" y="439" width="290" height="179" rx="12.6" ry="12.6"/>
        <g>
          <rect class="cls-19" x="519.8" y="334" width="194" height="79" rx="12.6" ry="12.6"/>
          <g class="cls-11">
            <text class="cls-7" transform="translate(542.4 385.8)"><tspan x="0" y="0">PartyKit</tspan></text>
          </g>
        </g>
        <path class="cls-20" d="M805.3,344.5h0c-7.3-10.5-21.8-13.6-32.3-6.9l-18.4,11.7c-5,3.2-8.5,8.3-9.5,14.1-.9,4.9-.1,9.9,2.2,14.3-1.6,2.4-2.7,5.1-3.2,7.9-1.1,6,.3,12.1,3.8,17,7.3,10.5,21.8,13.6,32.3,6.9l18.4-11.7c5-3.2,8.5-8.3,9.5-14.1.9-4.9.1-9.9-2.2-14.3,1.6-2.4,2.7-5.1,3.2-7.9,1.1-6-.3-12.1-3.8-17ZM800,359.5c-.1.6-.2,1.2-.4,1.7l-.3,1.1-.9-.7c-2.2-1.6-4.6-2.8-7.2-3.6l-.7-.2v-.7c.1-1-.1-1.9-.7-2.7-1-1.5-2.9-2.2-4.7-1.8-.4.1-.8.3-1.1.5l-18.4,11.7c-.9.6-1.5,1.5-1.7,2.6-.2,1.1,0,2.2.7,3.1,1,1.5,2.9,2.2,4.7,1.8.4-.1.8-.3,1.1-.5l7-4.5c1.2-.7,2.4-1.3,3.7-1.6,5.9-1.5,12.2.8,15.7,5.8,2.1,3,3,6.6,2.3,10.2-.6,3.5-2.7,6.6-5.7,8.5l-18.4,11.7c-1.2.7-2.4,1.3-3.7,1.6h0c-5.9,1.5-12.2-.8-15.7-5.8-2.1-3-3-6.6-2.3-10.2.1-.6.2-1.2.4-1.7l.3-1.1.9.7c2.2,1.6,4.6,2.8,7.2,3.6l.7.2v.7c-.1,1,.1,1.9.7,2.7,1,1.5,2.9,2.2,4.7,1.8.4-.1.8-.3,1.1-.5l18.4-11.7c.9-.6,1.5-1.5,1.7-2.6.2-1.1,0-2.2-.7-3.1-1-1.5-2.9-2.2-4.7-1.8-.4.1-.8.3-1.1.5l-7,4.5c-1.2.7-2.4,1.3-3.7,1.6-5.9,1.5-12.2-.8-15.7-5.8-2.1-3-3-6.6-2.3-10.2.6-3.5,2.7-6.6,5.7-8.5l18.4-11.7c1.2-.7,2.4-1.3,3.7-1.6,5.9-1.5,12.2.8,15.7,5.8,2.1,3,3,6.6,2.3,10.2h0Z"/>
        <path class="cls-20" d="M311.3,344.5h0c-7.3-10.5-21.8-13.6-32.3-6.9l-18.4,11.7c-5,3.2-8.5,8.3-9.5,14.1-.9,4.9-.1,9.9,2.2,14.3-1.6,2.4-2.6,5.1-3.2,7.9-1.1,6,.3,12.1,3.8,17,7.3,10.5,21.8,13.6,32.3,6.9l18.4-11.7c5-3.2,8.5-8.3,9.5-14.1.9-4.9.1-9.9-2.2-14.3,1.6-2.4,2.6-5.1,3.2-7.9,1.1-6-.3-12.1-3.8-17h0ZM306,359.5c-.1.6-.2,1.2-.4,1.7l-.4,1.1-.9-.7c-2.2-1.6-4.6-2.8-7.2-3.6l-.7-.2v-.7c.1-1-.1-1.9-.7-2.7-1-1.5-2.9-2.2-4.7-1.8-.4.1-.8.3-1.1.5l-18.4,11.7c-.9.6-1.5,1.5-1.7,2.6-.2,1.1,0,2.2.7,3.1,1,1.5,2.9,2.2,4.7,1.8.4-.1.8-.3,1.1-.5l7-4.5c1.1-.7,2.4-1.3,3.7-1.6,5.9-1.5,12.2.8,15.7,5.8,2.1,3,3,6.6,2.3,10.2-.6,3.5-2.7,6.6-5.7,8.5l-18.4,11.7c-1.2.7-2.4,1.3-3.7,1.6h0c-5.9,1.5-12.2-.8-15.7-5.8-2.1-3-3-6.6-2.3-10.2.1-.6.2-1.2.4-1.7l.4-1.1.9.7c2.2,1.6,4.6,2.8,7.2,3.6l.7.2v.7c-.1,1,.1,1.9.7,2.7,1,1.5,2.9,2.2,4.7,1.8.4-.1.8-.3,1.1-.5l18.4-11.7c.9-.6,1.5-1.5,1.7-2.6.2-1.1,0-2.2-.7-3.1-1-1.5-2.9-2.2-4.7-1.8-.4.1-.8.3-1.1.5l-7,4.5c-1.1.7-2.4,1.3-3.7,1.6-5.9,1.5-12.2-.8-15.7-5.8-2.1-3-3-6.6-2.3-10.2.6-3.5,2.7-6.6,5.7-8.5l18.4-11.7c1.2-.7,2.4-1.3,3.7-1.6,5.9-1.5,12.2.8,15.7,5.8,2.1,3,3,6.6,2.3,10.2h0Z"/>
        <g class="cls-11">
          <text class="cls-17" transform="translate(542.4 595.8)"><tspan x="0" y="0">remote</tspan></text>
        </g>
        <rect class="cls-19" x=".2" y="95" width="1235.1" height="79" rx="12.6" ry="12.6"/>
        <rect class="cls-21" x=".2" width="1235.1" height="79" rx="12.6" ry="12.6"/>
        <g class="cls-11">
          <text class="cls-5" transform="translate(541.8 144.6)"><tspan x="0" y="0">PartyKit</tspan></text>
        </g>
        <g class="cls-11">
          <text class="cls-16" transform="translate(54.8 51.5)"><tspan x="0" y="0">Cloudflare Durable Object</tspan></text>
        </g>
        <g>
          <rect class="cls-20" x="853" y="11" width="372" height="57" rx="12.6" ry="12.6"/>
          <g class="cls-11">
            <text class="cls-3" transform="translate(869 51.5)"><tspan x="0" y="0">current slide</tspan></text>
          </g>
          <g class="cls-11">
            <text class="cls-2" transform="translate(1166.1 51.5)"><tspan x="0" y="0">27</tspan></text>
          </g>
        </g>
        <g>
          <g>
            <line class="cls-23" x1="585.8" y1="326.4" x2="585.8" y2="173"/>
            <polygon class="cls-27" points="614.5 303.2 609.3 298.4 585.8 323.7 562.3 298.4 557.2 303.2 585.8 334 614.5 303.2"/>
          </g>
          <g>
            <line class="cls-23" x1="647.8" y1="180.6" x2="647.8" y2="334"/>
            <polygon class="cls-27" points="619.2 203.8 624.3 208.6 647.8 183.3 671.3 208.6 676.5 203.8 647.8 173 619.2 203.8"/>
          </g>
        </g>
        <g class="cls-11">
          <text class="cls-15" transform="translate(1009.1 717.8)"><tspan x="0" y="0">client</tspan></text>
        </g>
        <rect class="cls-26" x="893.3" y="309" width="341" height="339.9" rx="12.6" ry="12.6"/>
        <rect class="cls-21" x="918.8" y="439" width="290" height="179" rx="12.6" ry="12.6"/>
        <g>
          <rect class="cls-19" x="918.8" y="334" width="194" height="79" rx="12.6" ry="12.6"/>
          <g class="cls-11">
            <text class="cls-9" transform="translate(941.4 385.8)"><tspan x="0" y="0">PartyKit</tspan></text>
          </g>
        </g>
        <path class="cls-20" d="M1204.3,344.5h0c-7.3-10.5-21.8-13.6-32.3-6.9l-18.4,11.7c-5,3.2-8.5,8.3-9.5,14.1-.9,4.9-.1,9.9,2.2,14.3-1.6,2.4-2.7,5.1-3.2,7.9-1.1,6,.3,12.1,3.8,17,7.3,10.5,21.8,13.6,32.3,6.9l18.4-11.7c5-3.2,8.5-8.3,9.5-14.1.9-4.9.1-9.9-2.2-14.3,1.6-2.4,2.7-5.1,3.2-7.9,1.1-6-.3-12.1-3.8-17ZM1199,359.5c-.1.6-.2,1.2-.4,1.7l-.3,1.1-.9-.7c-2.2-1.6-4.6-2.8-7.2-3.6l-.7-.2v-.7c.1-1-.1-1.9-.7-2.7-1.1-1.5-2.9-2.2-4.7-1.8-.4.1-.8.3-1.1.5l-18.4,11.7c-.9.6-1.5,1.5-1.7,2.6-.2,1.1,0,2.2.7,3.1,1.1,1.5,2.9,2.2,4.7,1.8.4-.1.8-.3,1.1-.5l7-4.5c1.2-.7,2.4-1.3,3.7-1.6,5.9-1.5,12.2.8,15.7,5.8,2.1,3,2.9,6.6,2.3,10.2-.6,3.5-2.7,6.6-5.7,8.5l-18.4,11.7c-1.2.7-2.4,1.3-3.7,1.6h0c-5.9,1.5-12.2-.8-15.7-5.8-2.1-3-2.9-6.6-2.3-10.2.1-.6.2-1.2.4-1.7l.3-1.1.9.7c2.2,1.6,4.6,2.8,7.2,3.6l.7.2v.7c-.1,1,.1,1.9.7,2.7,1.1,1.5,2.9,2.2,4.7,1.8.4-.1.8-.3,1.1-.5l18.4-11.7c.9-.6,1.5-1.5,1.7-2.6.2-1.1,0-2.2-.7-3.1-1.1-1.5-2.9-2.2-4.7-1.8-.4.1-.8.3-1.1.5l-7,4.5c-1.2.7-2.4,1.3-3.7,1.6-5.9,1.5-12.2-.8-15.7-5.8-2.1-3-2.9-6.6-2.3-10.2.6-3.5,2.7-6.6,5.7-8.5l18.4-11.7c1.2-.7,2.4-1.3,3.7-1.6,5.9-1.5,12.2.8,15.7,5.8,2.1,3,2.9,6.6,2.3,10.2h0Z"/>
        <g class="cls-11">
          <text class="cls-4" transform="translate(941.4 595.8)"><tspan x="0" y="0">remote</tspan></text>
        </g>
        <g>
          <g>
            <line class="cls-23" x1="984.8" y1="326.4" x2="984.8" y2="173"/>
            <polygon class="cls-27" points="1013.5 303.2 1008.3 298.4 984.8 323.7 961.3 298.4 956.2 303.2 984.8 334 1013.5 303.2"/>
          </g>
          <g>
            <line class="cls-23" x1="1046.8" y1="132.6" x2="1046.8" y2="334"/>
            <polygon class="cls-27" points="1018.2 155.8 1023.3 160.6 1046.8 135.3 1070.3 160.6 1075.5 155.8 1046.8 125 1018.2 155.8"/>
          </g>
        </g>
        <g class="cls-11">
          <text class="cls-10" transform="translate(67 486.6)"><tspan x="0" y="0" xml:space="preserve">generate id  </tspan></text>
          <text class="cls-10" transform="translate(94.7 522.6)"><tspan x="0" y="0">+ secret</tspan></text>
        </g>
        <g>
          <line class="cls-24" x1="1029" y1="156" x2="1065" y2="192"/>
          <line class="cls-24" x1="1065" y1="156" x2="1029" y2="192"/>
        </g>
      </g>
    </g>
  </g>
</svg>