<?xml version="1.0" encoding="UTF-8"?>
<svg xmlns="http://www.w3.org/2000/svg" version="1.1" xmlns:xlink="http://www.w3.org/1999/xlink" viewBox="0 0 1441.1 853.2">
  <defs>
    <style>
      .cls-1, .cls-2, .cls-3, .cls-4, .cls-5, .cls-6, .cls-7, .cls-8, .cls-9, .cls-10, .cls-11, .cls-12, .cls-13, .cls-14, .cls-15, .cls-16 {
        isolation: isolate;
      }

      .cls-1, .cls-2, .cls-3, .cls-4, .cls-5, .cls-6, .cls-7, .cls-8, .cls-9, .cls-11, .cls-12, .cls-13, .cls-14, .cls-15, .cls-16 {
        font-size: 30px;
      }

      .cls-1, .cls-2, .cls-3, .cls-4, .cls-5, .cls-6, .cls-7, .cls-8, .cls-11, .cls-12, .cls-13, .cls-14, .cls-15, .cls-16 {
        font-family: FiraCode-Medium, 'Fira Code';
        font-weight: 500;
      }

      .cls-1, .cls-17 {
        fill: #f9064f;
      }

      .cls-18 {
        fill: #f1f5ef;
      }

      .cls-2, .cls-19 {
        fill: #faa442;
      }

      .cls-20 {
        stroke: url(#New_Pattern_Swatch_6-3);
        stroke-width: 5px;
      }

      .cls-20, .cls-21, .cls-22 {
        fill: none;
      }

      .cls-20, .cls-22 {
        stroke-miterlimit: 10;
      }

      .cls-3 {
        fill: url(#New_Pattern_Swatch_6-10);
      }

      .cls-4 {
        fill: url(#New_Pattern_Swatch_6-4);
      }

      .cls-5 {
        fill: url(#New_Pattern_Swatch_6-8);
      }

      .cls-6 {
        fill: url(#New_Pattern_Swatch_6-7);
      }

      .cls-7 {
        fill: url(#New_Pattern_Swatch_6-13);
      }

      .cls-22 {
        stroke: url(#New_Pattern_Swatch_5);
        stroke-width: 10px;
      }

      .cls-8 {
        fill: url(#New_Pattern_Swatch_6-6);
      }

      .cls-9 {
        font-family: FiraCode-Light, 'Fira Code';
        font-weight: 300;
      }

      .cls-9, .cls-23 {
        fill: #fa6742;
      }

      .cls-11 {
        fill: url(#New_Pattern_Swatch_6-2);
      }

      .cls-12 {
        fill: url(#New_Pattern_Swatch_6-5);
      }

      .cls-24 {
        fill: #c7c7c7;
      }

      .cls-25 {
        fill: url(#New_Pattern_Swatch_5);
      }

      .cls-13 {
        fill: url(#New_Pattern_Swatch_6-12);
      }

      .cls-14 {
        fill: url(#New_Pattern_Swatch_6-11);
      }

      .cls-15 {
        fill: url(#New_Pattern_Swatch_6-9);
      }

      .cls-16 {
        fill: url(#New_Pattern_Swatch_6);
      }
    </style>
    <pattern id="New_Pattern_Swatch_6" data-name="New Pattern Swatch 6" x="0" y="0" width="78" height="78" patternTransform="translate(-1635.5 -15975) scale(1 -1)" patternUnits="userSpaceOnUse" viewBox="0 0 78 78">
      <g>
        <rect class="cls-21" width="78" height="78"/>
        <g>
          <rect class="cls-21" width="78" height="78"/>
          <rect class="cls-18" width="78" height="78"/>
        </g>
      </g>
    </pattern>
    <pattern id="New_Pattern_Swatch_6-2" data-name="New Pattern Swatch 6" patternTransform="translate(-1159 -15975) scale(1 -1)" xlink:href="#New_Pattern_Swatch_6"/>
    <pattern id="New_Pattern_Swatch_6-3" data-name="New Pattern Swatch 6" patternTransform="translate(-2072.1 -15137.2) scale(1 -1)" xlink:href="#New_Pattern_Swatch_6"/>
    <pattern id="New_Pattern_Swatch_6-4" data-name="New Pattern Swatch 6" patternTransform="translate(-1720.8 -15643) scale(1 -1)" xlink:href="#New_Pattern_Swatch_6"/>
    <pattern id="New_Pattern_Swatch_6-5" data-name="New Pattern Swatch 6" patternTransform="translate(-1720.8 -15853) scale(1 -1)" xlink:href="#New_Pattern_Swatch_6"/>
    <pattern id="New_Pattern_Swatch_6-6" data-name="New Pattern Swatch 6" patternTransform="translate(-1226.8 -15643) scale(1 -1)" xlink:href="#New_Pattern_Swatch_6"/>
    <pattern id="New_Pattern_Swatch_6-7" data-name="New Pattern Swatch 6" patternTransform="translate(-1226.8 -15853) scale(1 -1)" xlink:href="#New_Pattern_Swatch_6"/>
    <pattern id="New_Pattern_Swatch_6-8" data-name="New Pattern Swatch 6" patternTransform="translate(-1427.3 -15281.8) scale(1 -1)" xlink:href="#New_Pattern_Swatch_6"/>
    <pattern id="New_Pattern_Swatch_6-9" data-name="New Pattern Swatch 6" patternTransform="translate(-1914.3 -15188.7) scale(1 -1)" xlink:href="#New_Pattern_Swatch_6"/>
    <pattern id="New_Pattern_Swatch_5" data-name="New Pattern Swatch 5" x="0" y="0" width="78" height="78" patternTransform="translate(-2072.1 -15137.2) scale(1 -1)" patternUnits="userSpaceOnUse" viewBox="0 0 78 78">
      <g>
        <rect class="cls-21" width="78" height="78"/>
        <g>
          <rect class="cls-21" width="78" height="78"/>
          <rect class="cls-17" width="78" height="78"/>
        </g>
      </g>
    </pattern>
    <pattern id="New_Pattern_Swatch_6-10" data-name="New Pattern Swatch 6" patternTransform="translate(-1938.2 -15875) scale(1 -1)" xlink:href="#New_Pattern_Swatch_6"/>
    <pattern id="New_Pattern_Swatch_6-11" data-name="New Pattern Swatch 6" patternTransform="translate(-894.1 -15875) scale(1 -1)" xlink:href="#New_Pattern_Swatch_6"/>
    <pattern id="New_Pattern_Swatch_6-12" data-name="New Pattern Swatch 6" patternTransform="translate(-894.1 -15827) scale(1 -1)" xlink:href="#New_Pattern_Swatch_6"/>
    <pattern id="New_Pattern_Swatch_6-13" data-name="New Pattern Swatch 6" patternTransform="translate(-894.1 -15779) scale(1 -1)" xlink:href="#New_Pattern_Swatch_6"/>
  </defs>
  <!-- Generator: Adobe Illustrator 28.7.1, SVG Export Plug-In . SVG Version: 1.2.0 Build 142)  -->
  <g>
    <g id="Layer_2">
      <g id="content">
        <g class="cls-10">
          <text class="cls-16" transform="translate(436.5 837.8)"><tspan x="0" y="0">host</tspan></text>
        </g>
        <g class="cls-10">
          <text class="cls-11" transform="translate(913.1 837.8)"><tspan x="0" y="0">client</tspan></text>
        </g>
        <line class="cls-20" x1="720.3" y1="371.5" x2="721.3" y2="826"/>
        <g>
          <rect class="cls-23" x="303.3" y="429" width="341" height="339.9" rx="12.6" ry="12.6"/>
          <rect class="cls-19" x="328.8" y="559" width="290" height="179" rx="12.6" ry="12.6"/>
          <g>
            <g>
              <rect class="cls-17" x="328.8" y="454" width="194" height="79" rx="12.6" ry="12.6"/>
              <g class="cls-10">
                <text class="cls-4" transform="translate(351.3 505.8)"><tspan x="0" y="0">PartyKit</tspan></text>
              </g>
            </g>
            <path class="cls-18" d="M614.2,464.5h0c-7.3-10.5-21.8-13.6-32.3-6.9l-18.4,11.7c-5,3.2-8.5,8.3-9.5,14.1-.9,4.9-.1,9.9,2.2,14.3-1.6,2.4-2.7,5.1-3.2,7.9-1.1,6,.3,12.1,3.8,17,7.3,10.5,21.8,13.6,32.3,6.9l18.4-11.7c5-3.2,8.5-8.3,9.5-14.1.9-4.9.1-9.9-2.2-14.3,1.6-2.4,2.7-5.1,3.2-7.9,1.1-6-.3-12.1-3.8-17h0ZM608.9,479.5c-.1.6-.2,1.2-.4,1.7l-.3,1.1-.9-.7c-2.2-1.6-4.6-2.8-7.2-3.6l-.7-.2v-.7c.1-1-.1-1.9-.7-2.7-1-1.5-2.9-2.2-4.7-1.8-.4.1-.8.3-1.1.5l-18.4,11.7c-.9.6-1.5,1.5-1.7,2.6-.2,1.1,0,2.2.7,3.1,1,1.5,2.9,2.2,4.7,1.8.4-.1.8-.3,1.1-.5l7-4.5c1.2-.7,2.4-1.3,3.7-1.6,5.9-1.5,12.2.8,15.7,5.8,2.1,3,3,6.6,2.3,10.2-.6,3.5-2.7,6.6-5.7,8.5l-18.4,11.7c-1.2.7-2.4,1.3-3.7,1.6h0c-5.9,1.5-12.2-.8-15.7-5.8-2.1-3-3-6.6-2.3-10.2.1-.6.2-1.2.4-1.7l.3-1.1.9.7c2.2,1.6,4.6,2.8,7.2,3.6l.7.2v.7c-.1,1,.1,1.9.7,2.7,1,1.5,2.9,2.2,4.7,1.8.4-.1.8-.3,1.1-.5l18.4-11.7c.9-.6,1.5-1.5,1.7-2.6.2-1.1,0-2.2-.7-3.1-1-1.5-2.9-2.2-4.7-1.8-.4.1-.8.3-1.1.5l-7,4.5c-1.2.7-2.4,1.3-3.7,1.6-5.9,1.5-12.2-.8-15.7-5.8-2.1-3-3-6.6-2.3-10.2.6-3.5,2.7-6.6,5.7-8.5l18.4-11.7c1.2-.7,2.4-1.3,3.7-1.6,5.9-1.5,12.2.8,15.7,5.8,2.1,3,3,6.6,2.3,10.2h0Z"/>
          </g>
          <g class="cls-10">
            <text class="cls-12" transform="translate(351.3 715.8)"><tspan x="0" y="0">remote</tspan></text>
          </g>
        </g>
        <g>
          <rect class="cls-23" x="797.3" y="429" width="341" height="339.9" rx="12.6" ry="12.6"/>
          <rect class="cls-19" x="822.8" y="559" width="290" height="179" rx="12.6" ry="12.6"/>
          <g>
            <g>
              <rect class="cls-17" x="822.8" y="454" width="194" height="79" rx="12.6" ry="12.6"/>
              <g class="cls-10">
                <text class="cls-8" transform="translate(845.3 505.8)"><tspan x="0" y="0">PartyKit</tspan></text>
              </g>
            </g>
            <path class="cls-18" d="M1108.2,464.5h0c-7.3-10.5-21.8-13.6-32.3-6.9l-18.4,11.7c-5,3.2-8.5,8.3-9.5,14.1-.9,4.9-.1,9.9,2.2,14.3-1.6,2.4-2.7,5.1-3.2,7.9-1.1,6,.3,12.1,3.8,17,7.3,10.5,21.8,13.6,32.3,6.9l18.4-11.7c5-3.2,8.5-8.3,9.5-14.1.9-4.9.1-9.9-2.2-14.3,1.6-2.4,2.7-5.1,3.2-7.9,1.1-6-.3-12.1-3.8-17h0ZM1102.9,479.5c-.1.6-.2,1.2-.4,1.7l-.3,1.1-.9-.7c-2.2-1.6-4.6-2.8-7.2-3.6l-.7-.2v-.7c.1-1-.1-1.9-.7-2.7-1.1-1.5-2.9-2.2-4.7-1.8-.4.1-.8.3-1.1.5l-18.4,11.7c-.9.6-1.5,1.5-1.7,2.6-.2,1.1,0,2.2.7,3.1,1.1,1.5,2.9,2.2,4.7,1.8.4-.1.8-.3,1.1-.5l7-4.5c1.2-.7,2.4-1.3,3.7-1.6,5.9-1.5,12.2.8,15.7,5.8,2.1,3,2.9,6.6,2.3,10.2-.6,3.5-2.7,6.6-5.7,8.5l-18.4,11.7c-1.2.7-2.4,1.3-3.7,1.6h0c-5.9,1.5-12.2-.8-15.7-5.8-2.1-3-2.9-6.6-2.3-10.2.1-.6.2-1.2.4-1.7l.3-1.1.9.7c2.2,1.6,4.6,2.8,7.2,3.6l.7.2v.7c-.1,1,.1,1.9.7,2.7,1.1,1.5,2.9,2.2,4.7,1.8.4-.1.8-.3,1.1-.5l18.4-11.7c.9-.6,1.5-1.5,1.7-2.6.2-1.1,0-2.2-.7-3.1-1.1-1.5-2.9-2.2-4.7-1.8-.4.1-.8.3-1.1.5l-7,4.5c-1.2.7-2.4,1.3-3.7,1.6-5.9,1.5-12.2-.8-15.7-5.8-2.1-3-2.9-6.6-2.3-10.2.6-3.5,2.7-6.6,5.7-8.5l18.4-11.7c1.2-.7,2.4-1.3,3.7-1.6,5.9-1.5,12.2.8,15.7,5.8,2.1,3,2.9,6.6,2.3,10.2h0Z"/>
          </g>
          <g class="cls-10">
            <text class="cls-6" transform="translate(845.3 715.8)"><tspan x="0" y="0">remote</tspan></text>
          </g>
        </g>
        <rect class="cls-17" x="103.1" y="95" width="1235.1" height="79" rx="12.6" ry="12.6"/>
        <rect class="cls-19" x="103.1" width="1235.1" height="79" rx="12.6" ry="12.6"/>
        <g class="cls-10">
          <text class="cls-5" transform="translate(644.8 144.6)"><tspan x="0" y="0">PartyKit</tspan></text>
        </g>
        <g class="cls-10">
          <text class="cls-15" transform="translate(157.7 51.5)"><tspan x="0" y="0">Cloudflare Durable Object</tspan></text>
        </g>
        <g>
          <rect class="cls-18" x="955.9" y="11" width="372" height="57" rx="12.6" ry="12.6"/>
          <g class="cls-10">
            <text class="cls-2" transform="translate(971.9 51.5)"><tspan x="0" y="0">current slide</tspan></text>
          </g>
          <g class="cls-10">
            <text class="cls-1" transform="translate(1269 51.5)"><tspan x="0" y="0">26</tspan></text>
          </g>
        </g>
        <g>
          <line class="cls-22" x1="425.9" y1="180.6" x2="425.9" y2="454"/>
          <polygon class="cls-25" points="397.3 203.8 402.4 208.6 425.9 183.3 449.4 208.6 454.6 203.8 425.9 173 397.3 203.8"/>
        </g>
        <g>
          <line class="cls-22" x1="915.9" y1="446.4" x2="915.9" y2="173"/>
          <polygon class="cls-25" points="944.6 423.2 939.5 418.4 916 443.7 892.5 418.4 887.3 423.2 916 454 944.6 423.2"/>
        </g>
        <g class="cls-10">
          <text class="cls-3" transform="translate(133.9 737.8)"><tspan x="0" y="0">/slides</tspan></text>
        </g>
        <g>
          <path class="cls-24" d="M321,303.5c.5,0,1,0,1.4-.3s.9-.4,1.2-.7l1.1,1.5c-.5.4-1,.7-1.7,1s-1.4.4-2.1.4c-1.1,0-2.1-.2-2.9-.7s-1.4-1.1-1.8-2c-.4-.8-.6-1.8-.6-3s.2-2.1.6-3c.4-.9,1-1.5,1.8-2s1.8-.8,2.9-.8,2.7.4,3.8,1.3l-1.1,1.5c-.4-.3-.9-.5-1.3-.7s-.9-.2-1.4-.2c-.9,0-1.6.3-2.1.9s-.8,1.6-.8,3,.3,2.3.8,2.9c.5.6,1.2.9,2.1.9h0Z"/>
          <path class="cls-24" d="M330.4,294.3v7.6c0,.6.1,1.1.4,1.4.3.3.6.4,1.2.4s1-.1,1.4-.4.8-.6,1.1-1.1v-7.8h2.3v10.8h-2v-1.4c-.5.5-1.1,1-1.7,1.2-.6.3-1.2.4-1.9.4-1,0-1.8-.3-2.4-.9s-.8-1.4-.8-2.4v-7.9h2.3Z"/>
          <path class="cls-24" d="M340.5,305.1v-1.6h1.6v-7.6h-1.6v-1.6h3.3l.4,2.5c.4-.9.9-1.6,1.5-2.1.6-.5,1.4-.7,2.3-.7s.6,0,.9,0,.5.1.8.2l-.4,4h-1.6v-2.2c-.8,0-1.4.3-2,.9-.5.6-1,1.4-1.3,2.5v4h2.2v1.6h-6.1,0Z"/>
          <path class="cls-24" d="M352.8,305.1v-1.6h1.6v-7.6h-1.6v-1.6h3.3l.4,2.5c.4-.9.9-1.6,1.5-2.1.6-.5,1.4-.7,2.3-.7s.6,0,.9,0,.5.1.8.2l-.4,4h-1.6v-2.2c-.8,0-1.4.3-2,.9-.5.6-1,1.4-1.3,2.5v4h2.2v1.6h-6.1,0Z"/>
          <path class="cls-24" d="M366.9,300.4c0,1.1.4,1.9.9,2.4s1.2.8,2,.8,1,0,1.5-.2c.5-.2.9-.4,1.4-.7l1,1.4c-.5.4-1.1.7-1.8,1s-1.4.4-2.2.4c-1.1,0-2.1-.2-2.9-.7s-1.4-1.1-1.8-2c-.4-.9-.6-1.8-.6-3s.2-2.1.6-2.9c.4-.9,1-1.5,1.7-2,.7-.5,1.6-.8,2.6-.8s2.6.5,3.4,1.5c.8,1,1.3,2.3,1.3,4s0,.4,0,.5c0,.2,0,.3,0,.5h-7.2ZM369.5,295.7c-.7,0-1.3.3-1.8.8-.5.5-.7,1.3-.8,2.4h5c0-1-.2-1.8-.6-2.4-.4-.5-1-.8-1.8-.8h0Z"/>
          <path class="cls-24" d="M377.3,305.1v-10.8h2l.2,1.4c.5-.5,1-1,1.6-1.3s1.2-.4,1.9-.4c1,0,1.8.3,2.3.9s.8,1.4.8,2.4v7.9h-2.3v-6.8c0-.9,0-1.6-.3-2-.2-.4-.6-.6-1.3-.6s-1,.2-1.4.5c-.4.3-.8.7-1.1,1.1v7.8h-2.3,0Z"/>
          <path class="cls-24" d="M398.7,304.5c-.4.2-.9.5-1.4.6s-1.1.2-1.7.2c-1.3,0-2.2-.3-2.9-1-.6-.6-1-1.5-1-2.6v-5.9h-2.4v-1.7h2.4v-2.4l2.3-.3v2.7h3.6l-.3,1.7h-3.4v5.9c0,.6.1,1,.4,1.3.3.3.8.4,1.4.4s.8,0,1.1-.1.6-.2.9-.4l.8,1.5h0Z"/>
          <path class="cls-24" d="M270.5,327.6c.7,0,1.3-.1,1.7-.4.4-.3.6-.6.6-1.1s0-.5-.2-.8c-.1-.2-.4-.4-.7-.6s-.9-.4-1.7-.5c-.7-.2-1.3-.4-1.9-.7-.5-.2-1-.6-1.2-1s-.4-.9-.4-1.6c0-.9.4-1.7,1.2-2.2s1.8-.9,3.2-.9,1.7.1,2.4.4,1.2.5,1.7.9l-1,1.5c-.4-.3-.9-.5-1.4-.7s-1.1-.3-1.7-.3-1.3.1-1.6.3c-.3.2-.5.5-.5.9s0,.5.2.7.4.4.8.5,1,.3,1.7.5c.7.2,1.3.4,1.8.7.5.3.9.6,1.2,1s.4,1,.4,1.7-.2,1.4-.7,1.9c-.5.5-1,.9-1.8,1.1-.7.2-1.5.4-2.3.4s-1.9-.1-2.6-.4-1.4-.6-1.9-1.1l1.2-1.4c.4.3.9.6,1.5.8s1.1.3,1.8.3h0Z"/>
          <path class="cls-24" d="M283.6,313.9v12.2c0,.5.1.9.5,1.1.3.2.7.3,1.2.3s.6,0,.9-.1c.3,0,.6-.1.8-.3l.6,1.6c-.3.2-.7.3-1.2.4-.5.1-1,.2-1.6.2-1.1,0-1.9-.3-2.5-.9-.6-.6-.9-1.5-.9-2.5v-10.3h-3.3v-1.7h5.6Z"/>
          <path class="cls-24" d="M297.1,318.3v9.1h2.9v1.7h-8.5v-1.7h3.2v-7.5h-3.1v-1.7h5.4ZM295.5,313c.5,0,.8.1,1.1.4.3.3.4.6.4,1s-.1.8-.4,1-.6.4-1.1.4-.8-.1-1.1-.4-.4-.6-.4-1,.1-.8.4-1,.6-.4,1.1-.4Z"/>
          <path class="cls-24" d="M309.8,313.7l2.3.3v15.2h-2l-.2-1.3c-.4.5-.8.9-1.3,1.2s-1.1.4-1.7.4c-.9,0-1.7-.2-2.3-.7s-1-1.1-1.3-2c-.3-.9-.4-1.9-.4-3s.2-2.1.5-2.9c.3-.9.8-1.5,1.5-2s1.4-.7,2.3-.7,2,.4,2.7,1.2v-5.5h0ZM307.7,319.8c-.8,0-1.4.3-1.8,1-.4.6-.6,1.6-.6,3s.2,2.4.6,3c.4.6,1,.9,1.7.9s1-.1,1.4-.5.7-.7,1-1.1v-5.1c-.3-.4-.6-.7-.9-.9s-.8-.3-1.2-.3h0Z"/>
          <path class="cls-24" d="M317.7,324.4c0,1.1.4,1.9.9,2.4s1.2.8,2,.8,1,0,1.5-.2c.5-.2.9-.4,1.4-.7l1,1.4c-.5.4-1.1.7-1.8,1s-1.4.4-2.2.4c-1.1,0-2.1-.2-2.9-.7s-1.4-1.1-1.8-2c-.4-.9-.6-1.8-.6-3s.2-2.1.6-2.9c.4-.9,1-1.5,1.7-2,.7-.5,1.6-.8,2.6-.8s2.6.5,3.4,1.5c.8,1,1.3,2.3,1.3,4s0,.4,0,.5c0,.2,0,.3,0,.5h-7.2ZM320.3,319.7c-.7,0-1.3.3-1.8.8-.5.5-.7,1.3-.8,2.4h5c0-1-.2-1.8-.6-2.4-.4-.5-1-.8-1.8-.8h0Z"/>
          <path class="cls-24" d="M346.3,318.3v9.1h2.9v1.7h-8.5v-1.7h3.2v-7.5h-3.1v-1.7h5.4ZM344.7,313c.5,0,.8.1,1.1.4.3.3.4.6.4,1s-.1.8-.4,1-.6.4-1.1.4-.8-.1-1.1-.4-.4-.6-.4-1,.1-.8.4-1,.6-.4,1.1-.4Z"/>
          <path class="cls-24" d="M352.7,329.1v-10.8h2l.2,1.4c.5-.5,1-1,1.6-1.3s1.2-.4,1.9-.4c1,0,1.8.3,2.3.9s.8,1.4.8,2.4v7.9h-2.3v-6.8c0-.9,0-1.6-.3-2-.2-.4-.6-.6-1.3-.6s-1,.2-1.4.5c-.4.3-.8.7-1.1,1.1v7.8h-2.3,0Z"/>
          <path class="cls-24" d="M371.4,313.7l2.3.3v15.2h-2l-.2-1.3c-.4.5-.8.9-1.3,1.2s-1.1.4-1.7.4c-.9,0-1.7-.2-2.3-.7s-1-1.1-1.3-2c-.3-.9-.4-1.9-.4-3s.2-2.1.5-2.9c.3-.9.8-1.5,1.5-2s1.4-.7,2.3-.7,2,.4,2.7,1.2v-5.5h0ZM369.2,319.8c-.8,0-1.4.3-1.8,1-.4.6-.6,1.6-.6,3s.2,2.4.6,3c.4.6,1,.9,1.7.9s1-.1,1.4-.5.7-.7,1-1.1v-5.1c-.3-.4-.6-.7-.9-.9s-.8-.3-1.2-.3h0Z"/>
          <path class="cls-24" d="M379.2,324.4c0,1.1.4,1.9.9,2.4s1.2.8,2,.8,1,0,1.5-.2c.5-.2.9-.4,1.4-.7l1,1.4c-.5.4-1.1.7-1.8,1s-1.4.4-2.2.4c-1.1,0-2.1-.2-2.9-.7s-1.4-1.1-1.8-2c-.4-.9-.6-1.8-.6-3s.2-2.1.6-2.9c.4-.9,1-1.5,1.7-2,.7-.5,1.6-.8,2.6-.8s2.6.5,3.4,1.5c.8,1,1.3,2.3,1.3,4s0,.4,0,.5c0,.2,0,.3,0,.5h-7.2ZM381.8,319.7c-.7,0-1.3.3-1.8.8-.5.5-.7,1.3-.8,2.4h5c0-1-.2-1.8-.6-2.4-.4-.5-1-.8-1.8-.8h0Z"/>
          <path class="cls-24" d="M391.2,329.1h-2.5l3.9-5.7-3.5-5.1h2.6l2.2,3.8,2.2-3.8h2.5l-3.4,5,3.9,5.8h-2.7l-2.7-4.4-2.6,4.4h0Z"/>
        </g>
        <g>
          <path class="cls-24" d="M948,303.5c.5,0,1,0,1.4-.3s.8-.4,1.2-.7l1.1,1.5c-.5.4-1,.7-1.7,1s-1.4.4-2.1.4c-1.1,0-2.1-.2-2.8-.7s-1.4-1.1-1.8-2c-.4-.8-.6-1.8-.6-3s.2-2.1.6-3c.4-.9,1-1.5,1.8-2s1.8-.8,2.9-.8,2.7.4,3.8,1.3l-1.1,1.5c-.4-.3-.9-.5-1.3-.7s-.9-.2-1.3-.2c-.9,0-1.6.3-2.1.9s-.8,1.6-.8,3,.3,2.3.8,2.9,1.2.9,2.1.9h0Z"/>
          <path class="cls-24" d="M957.4,294.3v7.6c0,.6.1,1.1.4,1.4.3.3.6.4,1.2.4s1-.1,1.4-.4.8-.6,1.1-1.1v-7.8h2.3v10.8h-2v-1.4c-.5.5-1,1-1.7,1.2-.6.3-1.2.4-1.9.4-1,0-1.8-.3-2.3-.9-.5-.6-.8-1.4-.8-2.4v-7.9h2.3Z"/>
          <path class="cls-24" d="M967.5,305.1v-1.6h1.6v-7.6h-1.6v-1.6h3.3l.4,2.5c.4-.9.9-1.6,1.5-2.1.6-.5,1.4-.7,2.3-.7s.6,0,.9,0,.5.1.8.2l-.4,4h-1.6v-2.2c-.8,0-1.4.3-2,.9-.5.6-1,1.4-1.3,2.5v4h2.2v1.6h-6.1,0Z"/>
          <path class="cls-24" d="M979.8,305.1v-1.6h1.6v-7.6h-1.6v-1.6h3.3l.4,2.5c.4-.9.9-1.6,1.5-2.1.6-.5,1.4-.7,2.3-.7s.6,0,.9,0,.5.1.8.2l-.4,4h-1.6v-2.2c-.8,0-1.4.3-2,.9-.5.6-1,1.4-1.3,2.5v4h2.2v1.6h-6.1,0Z"/>
          <path class="cls-24" d="M993.9,300.4c0,1.1.4,1.9.9,2.4s1.2.8,2,.8,1,0,1.5-.2c.5-.2.9-.4,1.4-.7l1,1.4c-.5.4-1.1.7-1.8,1s-1.4.4-2.2.4c-1.1,0-2.1-.2-2.9-.7s-1.4-1.1-1.8-2-.6-1.8-.6-3,.2-2.1.6-2.9c.4-.9,1-1.5,1.7-2s1.6-.8,2.7-.8,2.6.5,3.4,1.5c.8,1,1.3,2.3,1.3,4s0,.4,0,.5c0,.2,0,.3,0,.5h-7.2ZM996.5,295.7c-.7,0-1.3.3-1.8.8-.5.5-.7,1.3-.8,2.4h5c0-1-.2-1.8-.7-2.4-.4-.5-1-.8-1.8-.8h0Z"/>
          <path class="cls-24" d="M1004.3,305.1v-10.8h2l.2,1.4c.5-.5,1-1,1.6-1.3s1.2-.4,1.9-.4c1,0,1.8.3,2.3.9s.8,1.4.8,2.4v7.9h-2.3v-6.8c0-.9,0-1.6-.3-2-.2-.4-.6-.6-1.3-.6s-1,.2-1.4.5c-.4.3-.8.7-1.1,1.1v7.8h-2.3,0Z"/>
          <path class="cls-24" d="M1025.7,304.5c-.4.2-.9.5-1.4.6s-1.1.2-1.7.2c-1.3,0-2.2-.3-2.9-1-.7-.6-1-1.5-1-2.6v-5.9h-2.4v-1.7h2.4v-2.4l2.3-.3v2.7h3.6l-.3,1.7h-3.4v5.9c0,.6.2,1,.4,1.3.3.3.8.4,1.4.4s.8,0,1.1-.1.6-.2.9-.4l.8,1.5h0Z"/>
          <path class="cls-24" d="M946.7,327.6c.7,0,1.3-.1,1.7-.4.4-.3.6-.6.6-1.1s0-.5-.2-.8c-.1-.2-.4-.4-.7-.6s-.9-.4-1.7-.5c-.7-.2-1.3-.4-1.9-.7-.5-.2-1-.6-1.2-1s-.4-.9-.4-1.6c0-.9.4-1.7,1.2-2.2.8-.6,1.8-.9,3.2-.9s1.7.1,2.4.4,1.2.5,1.7.9l-1,1.5c-.4-.3-.9-.5-1.4-.7s-1.1-.3-1.7-.3-1.3.1-1.6.3-.5.5-.5.9,0,.5.2.7.4.4.8.5,1,.3,1.7.5c.7.2,1.3.4,1.8.7.5.3.9.6,1.2,1s.4,1,.4,1.7-.2,1.4-.7,1.9c-.5.5-1,.9-1.8,1.1-.7.2-1.5.4-2.3.4s-1.9-.1-2.6-.4-1.3-.6-1.8-1.1l1.2-1.4c.4.3.9.6,1.5.8.5.2,1.1.3,1.8.3h0Z"/>
          <path class="cls-24" d="M959.8,313.9v12.2c0,.5.2.9.5,1.1.3.2.7.3,1.2.3s.6,0,.9-.1c.3,0,.6-.1.8-.3l.6,1.6c-.3.2-.7.3-1.2.4-.5.1-1,.2-1.6.2-1.1,0-1.9-.3-2.5-.9-.6-.6-.9-1.5-.9-2.5v-10.3h-3.3v-1.7h5.6,0Z"/>
          <path class="cls-24" d="M973.3,318.3v9.1h2.9v1.7h-8.5v-1.7h3.2v-7.5h-3.1v-1.7h5.4ZM971.7,313c.5,0,.8.1,1.1.4.3.3.4.6.4,1s-.1.8-.4,1c-.3.3-.6.4-1.1.4s-.8-.1-1.1-.4-.4-.6-.4-1,.1-.8.4-1,.6-.4,1.1-.4Z"/>
          <path class="cls-24" d="M986,313.7l2.3.3v15.2h-2l-.2-1.3c-.4.5-.8.9-1.3,1.2s-1.1.4-1.7.4c-.9,0-1.7-.2-2.3-.7s-1-1.1-1.3-2c-.3-.9-.4-1.9-.4-3s.2-2.1.5-2.9c.3-.9.8-1.5,1.5-2s1.4-.7,2.3-.7,2,.4,2.7,1.2v-5.5h0ZM983.9,319.8c-.8,0-1.4.3-1.8,1-.4.6-.7,1.6-.7,3s.2,2.4.6,3,1,.9,1.7.9,1-.1,1.3-.5.7-.7,1-1.1v-5.1c-.3-.4-.6-.7-.9-.9s-.8-.3-1.2-.3h0Z"/>
          <path class="cls-24" d="M993.9,324.4c0,1.1.4,1.9.9,2.4s1.2.8,2,.8,1,0,1.5-.2c.5-.2.9-.4,1.4-.7l1,1.4c-.5.4-1.1.7-1.8,1s-1.4.4-2.2.4c-1.1,0-2.1-.2-2.9-.7s-1.4-1.1-1.8-2-.6-1.8-.6-3,.2-2.1.6-2.9c.4-.9,1-1.5,1.7-2s1.6-.8,2.7-.8,2.6.5,3.4,1.5c.8,1,1.3,2.3,1.3,4s0,.4,0,.5c0,.2,0,.3,0,.5h-7.2ZM996.5,319.7c-.7,0-1.3.3-1.8.8-.5.5-.7,1.3-.8,2.4h5c0-1-.2-1.8-.7-2.4-.4-.5-1-.8-1.8-.8h0Z"/>
          <path class="cls-24" d="M1022.5,318.3v9.1h2.9v1.7h-8.5v-1.7h3.2v-7.5h-3.1v-1.7h5.4ZM1020.9,313c.5,0,.8.1,1.1.4.3.3.4.6.4,1s-.1.8-.4,1c-.3.3-.6.4-1.1.4s-.8-.1-1.1-.4-.4-.6-.4-1,.1-.8.4-1,.6-.4,1.1-.4Z"/>
          <path class="cls-24" d="M1028.9,329.1v-10.8h2l.2,1.4c.4-.5,1-1,1.6-1.3s1.2-.4,1.9-.4c1,0,1.8.3,2.3.9s.8,1.4.8,2.4v7.9h-2.3v-6.8c0-.9,0-1.6-.3-2-.2-.4-.6-.6-1.3-.6s-1,.2-1.4.5c-.4.3-.8.7-1.1,1.1v7.8h-2.3,0Z"/>
          <path class="cls-24" d="M1047.6,313.7l2.3.3v15.2h-2l-.2-1.3c-.4.5-.8.9-1.3,1.2s-1.1.4-1.7.4c-.9,0-1.7-.2-2.3-.7s-1-1.1-1.3-2c-.3-.9-.4-1.9-.4-3s.2-2.1.5-2.9c.3-.9.8-1.5,1.5-2s1.4-.7,2.3-.7,2,.4,2.7,1.2v-5.5h0ZM1045.5,319.8c-.8,0-1.4.3-1.8,1-.4.6-.7,1.6-.7,3s.2,2.4.6,3,.9.9,1.7.9,1-.1,1.3-.5.7-.7,1-1.1v-5.1c-.3-.4-.6-.7-.9-.9s-.8-.3-1.2-.3h0Z"/>
          <path class="cls-24" d="M1055.4,324.4c0,1.1.4,1.9.9,2.4s1.2.8,2,.8,1,0,1.5-.2c.4-.2.9-.4,1.4-.7l1,1.4c-.5.4-1.1.7-1.8,1s-1.4.4-2.2.4c-1.1,0-2.1-.2-2.9-.7s-1.4-1.1-1.8-2-.6-1.8-.6-3,.2-2.1.6-2.9c.4-.9,1-1.5,1.7-2s1.6-.8,2.7-.8,2.6.5,3.4,1.5c.8,1,1.3,2.3,1.3,4s0,.4,0,.5c0,.2,0,.3,0,.5h-7.2ZM1058,319.7c-.7,0-1.3.3-1.8.8-.5.5-.7,1.3-.8,2.4h5c0-1-.2-1.8-.7-2.4-.4-.5-1-.8-1.8-.8h0Z"/>
          <path class="cls-24" d="M1067.4,329.1h-2.5l3.9-5.7-3.5-5.1h2.7l2.2,3.8,2.2-3.8h2.5l-3.4,5,3.9,5.8h-2.7l-2.7-4.4-2.7,4.4h0Z"/>
        </g>
        <g class="cls-10">
          <text class="cls-14" transform="translate(1178 737.8)"><tspan x="0" y="0">/present/[id]</tspan></text>
        </g>
        <g class="cls-10">
          <text class="cls-13" transform="translate(1178 689.8)"><tspan x="0" y="0">/remote/[id]</tspan></text>
        </g>
        <g class="cls-10">
          <text class="cls-7" transform="translate(1178 641.8)"><tspan x="0" y="0">/slides/[id]</tspan></text>
        </g>
        <g class="cls-10">
          <text class="cls-9" transform="translate(369.9 616.6)"><tspan x="0" y="0">generate id</tspan></text>
        </g>
      </g>
    </g>
  </g>
</svg>