<?xml version="1.0" encoding="UTF-8"?>
<svg id="Layer_2" xmlns="http://www.w3.org/2000/svg" xmlns:xlink="http://www.w3.org/1999/xlink" viewBox="0 0 1235.3 854.49">
  <defs>
    <style>
      .cls-1 {
        fill: url(#New_Pattern_Swatch_3);
      }

      .cls-2 {
        fill: #f1f5ef;
      }

      .cls-3, .cls-4 {
        fill: #faa442;
      }

      .cls-5, .cls-6 {
        fill: #f9064f;
      }

      .cls-7, .cls-8, .cls-9, .cls-10 {
        fill: none;
      }

      .cls-8 {
        stroke: url(#New_Pattern_Swatch_5);
      }

      .cls-8, .cls-9, .cls-10 {
        stroke-miterlimit: 10;
      }

      .cls-8, .cls-10 {
        stroke-width: 10px;
      }

      .cls-9 {
        stroke: url(#New_Pattern_Swatch_6);
        stroke-width: 5px;
      }

      .cls-11 {
        fill: url(#New_Pattern_Swatch_6);
      }

      .cls-11, .cls-6, .cls-12, .cls-4 {
        font-size: 30px;
      }

      .cls-11, .cls-6, .cls-4 {
        font-family: FiraCode-Medium, 'Fira Code';
        font-weight: 500;
      }

      .cls-10 {
        stroke: url(#New_Pattern_Swatch_3);
      }

      .cls-13, .cls-12 {
        fill: #fa6742;
      }

      .cls-14 {
        fill: url(#New_Pattern_Swatch_5);
      }

      .cls-12 {
        font-family: FiraCode-Light, 'Fira Code';
        font-weight: 300;
      }
    </style>
    <pattern id="New_Pattern_Swatch_3" data-name="New Pattern Swatch 3" x="0" y="0" width="78" height="78" patternTransform="translate(-4038 -130)" patternUnits="userSpaceOnUse" viewBox="0 0 78 78">
      <g>
        <rect class="cls-7" width="78" height="78"/>
        <rect class="cls-3" width="78" height="78"/>
      </g>
    </pattern>
    <pattern id="New_Pattern_Swatch_5" data-name="New Pattern Swatch 5" x="0" y="0" width="78" height="78" patternTransform="translate(-4038 -130)" patternUnits="userSpaceOnUse" viewBox="0 0 78 78">
      <g>
        <rect class="cls-7" width="78" height="78"/>
        <rect class="cls-5" width="78" height="78"/>
      </g>
    </pattern>
    <pattern id="New_Pattern_Swatch_6" data-name="New Pattern Swatch 6" x="0" y="0" width="78" height="78" patternTransform="translate(-4038 -130)" patternUnits="userSpaceOnUse" viewBox="0 0 78 78">
      <g>
        <rect class="cls-7" width="78" height="78"/>
        <rect class="cls-2" width="78" height="78"/>
      </g>
    </pattern>
  </defs>
  <g id="content">
    <g>
      <polyline class="cls-10" points="1064.83 753 1064.83 849.49 260.53 849.49 260.53 618"/>
      <polygon class="cls-1" points="1040.29 772.88 1044.69 776.97 1064.83 755.3 1084.97 776.97 1089.37 772.88 1064.83 746.49 1040.29 772.88"/>
    </g>
    <g>
      <polyline class="cls-8" points="664.83 753 664.83 809.49 300.53 809.49 300.53 618"/>
      <polygon class="cls-14" points="640.29 772.88 644.69 776.97 664.83 755.3 684.97 776.97 689.37 772.88 664.83 746.49 640.29 772.88"/>
    </g>
    <rect class="cls-13" x=".33" y="309" width="341" height="339.94" rx="12.6" ry="12.6"/>
    <g>
      <rect class="cls-5" x="26" y="334" width="194" height="79" rx="12.6" ry="12.6"/>
      <text class="cls-11" transform="translate(48.53 385.83)"><tspan x="0" y="0">PartyKit</tspan></text>
    </g>
    <g>
      <g>
        <line class="cls-8" x1="92" y1="326.41" x2="92" y2="173"/>
        <polygon class="cls-14" points="120.63 303.21 115.5 298.44 92.01 323.72 68.5 298.44 63.38 303.21 92.01 334 120.63 303.21"/>
      </g>
      <g>
        <line class="cls-8" x1="154" y1="180.59" x2="154" y2="334"/>
        <polygon class="cls-14" points="125.37 203.79 130.5 208.56 153.99 183.28 177.5 208.56 182.62 203.79 153.99 173 125.37 203.79"/>
      </g>
    </g>
    <text class="cls-11" transform="translate(133.58 717.83)"><tspan x="0" y="0">host</tspan></text>
    <text class="cls-11" transform="translate(380.96 787.83)"><tspan x="0" y="0">id + secret</tspan></text>
    <text class="cls-11" transform="translate(821.89 824.83)"><tspan x="0" y="0">id only</tspan></text>
    <text class="cls-11" transform="translate(610.12 717.83)"><tspan x="0" y="0">client</tspan></text>
    <line class="cls-9" x1="417.33" y1="251.5" x2="418.33" y2="706"/>
    <rect class="cls-3" x="25.83" y="439" width="290" height="179" rx="12.6" ry="12.6"/>
    <text class="cls-11" transform="translate(48.36 595.83)"><tspan x="0" y="0">remote</tspan></text>
    <rect class="cls-13" x="494.33" y="309" width="341" height="339.94" rx="12.6" ry="12.6"/>
    <rect class="cls-3" x="519.83" y="439" width="290" height="179" rx="12.6" ry="12.6"/>
    <g>
      <rect class="cls-5" x="519.83" y="334" width="194" height="79" rx="12.6" ry="12.6"/>
      <text class="cls-11" transform="translate(542.36 385.83)"><tspan x="0" y="0">PartyKit</tspan></text>
    </g>
    <path class="cls-2" d="M805.26,344.45h0c-7.34-10.5-21.83-13.61-32.31-6.94l-18.4,11.73c-5.03,3.16-8.49,8.29-9.54,14.14-.88,4.87-.11,9.89,2.19,14.27-1.57,2.39-2.65,5.07-3.16,7.89-1.06,5.96.33,12.09,3.84,17.01,7.34,10.5,21.83,13.61,32.31,6.94l18.4-11.73c5.03-3.16,8.49-8.29,9.54-14.14.88-4.87.11-9.89-2.19-14.27,1.57-2.39,2.65-5.07,3.16-7.89,1.06-5.96-.33-12.09-3.84-17.01ZM800,359.51c-.11.58-.25,1.16-.44,1.72l-.35,1.06-.94-.69c-2.18-1.6-4.61-2.82-7.2-3.6l-.68-.21.06-.68c.08-.97-.18-1.94-.74-2.74-1.05-1.52-2.94-2.22-4.72-1.75-.4.11-.78.27-1.13.5l-18.4,11.73c-.91.57-1.54,1.5-1.73,2.56-.19,1.08.06,2.19.7,3.08,1.05,1.52,2.94,2.22,4.73,1.75.4-.11.78-.27,1.13-.5l7.02-4.47c1.15-.74,2.41-1.29,3.74-1.64,5.93-1.54,12.19.78,15.69,5.82,2.12,2.96,2.95,6.65,2.31,10.23-.63,3.51-2.71,6.6-5.74,8.5l-18.4,11.73c-1.16.74-2.42,1.29-3.74,1.64h0c-5.93,1.54-12.19-.78-15.69-5.82-2.12-2.96-2.95-6.65-2.31-10.23.11-.58.25-1.16.44-1.72l.35-1.06.94.69c2.18,1.6,4.61,2.82,7.2,3.6l.68.21-.06.68c-.08.97.18,1.94.74,2.74,1.05,1.52,2.94,2.22,4.72,1.75.4-.11.78-.27,1.13-.5l18.4-11.73c.91-.57,1.54-1.5,1.73-2.56.19-1.08-.06-2.19-.7-3.08-1.05-1.52-2.94-2.22-4.73-1.75-.4.11-.78.27-1.13.5l-7.02,4.48c-1.15.73-2.41,1.29-3.74,1.64-5.93,1.54-12.19-.78-15.69-5.82-2.12-2.96-2.95-6.65-2.31-10.23.63-3.51,2.71-6.6,5.74-8.5l18.4-11.73c1.16-.74,2.42-1.29,3.74-1.64,5.93-1.54,12.19.78,15.69,5.82,2.12,2.96,2.95,6.65,2.31,10.23Z"/>
    <path class="cls-2" d="M311.26,344.45h0c-7.34-10.5-21.83-13.61-32.31-6.94l-18.4,11.73c-5.03,3.16-8.49,8.29-9.54,14.14-.88,4.87-.11,9.89,2.19,14.27-1.57,2.39-2.65,5.07-3.16,7.89-1.06,5.96.33,12.09,3.84,17.01,7.34,10.5,21.83,13.61,32.31,6.94l18.4-11.73c5.03-3.16,8.49-8.29,9.54-14.14.88-4.87.11-9.89-2.19-14.27,1.57-2.39,2.65-5.07,3.16-7.89,1.06-5.96-.33-12.09-3.84-17.01ZM306,359.51c-.11.58-.25,1.16-.44,1.72l-.35,1.06-.94-.69c-2.18-1.6-4.61-2.82-7.2-3.6l-.68-.21.06-.68c.08-.97-.18-1.94-.74-2.74-1.05-1.52-2.94-2.22-4.72-1.75-.4.11-.78.27-1.13.5l-18.4,11.73c-.91.57-1.54,1.5-1.73,2.56-.19,1.08.06,2.19.7,3.08,1.05,1.52,2.94,2.22,4.73,1.75.4-.11.78-.27,1.13-.5l7.02-4.47c1.15-.74,2.41-1.29,3.74-1.64,5.93-1.54,12.19.78,15.69,5.82,2.12,2.96,2.95,6.65,2.31,10.23-.63,3.51-2.71,6.6-5.74,8.5l-18.4,11.73c-1.16.74-2.42,1.29-3.74,1.64h0c-5.93,1.54-12.19-.78-15.69-5.82-2.12-2.96-2.95-6.65-2.31-10.23.11-.58.25-1.16.44-1.72l.35-1.06.94.69c2.18,1.6,4.61,2.82,7.2,3.6l.68.21-.06.68c-.08.97.18,1.94.74,2.74,1.05,1.52,2.94,2.22,4.72,1.75.4-.11.78-.27,1.13-.5l18.4-11.73c.91-.57,1.54-1.5,1.73-2.56.19-1.08-.06-2.19-.7-3.08-1.05-1.52-2.94-2.22-4.73-1.75-.4.11-.78.27-1.13.5l-7.02,4.48c-1.15.73-2.41,1.29-3.74,1.64-5.93,1.54-12.19-.78-15.69-5.82-2.12-2.96-2.95-6.65-2.31-10.23.63-3.51,2.71-6.6,5.74-8.5l18.4-11.73c1.16-.74,2.42-1.29,3.74-1.64,5.93-1.54,12.19.78,15.69,5.82,2.12,2.96,2.95,6.65,2.31,10.23Z"/>
    <text class="cls-11" transform="translate(542.36 595.83)"><tspan x="0" y="0">remote</tspan></text>
    <rect class="cls-5" x=".19" y="95" width="1235.11" height="79" rx="12.6" ry="12.6"/>
    <rect class="cls-3" x=".19" width="1235.11" height="79" rx="12.6" ry="12.6"/>
    <text class="cls-11" transform="translate(541.8 144.57)"><tspan x="0" y="0">PartyKit</tspan></text>
    <text class="cls-11" transform="translate(54.79 51.49)"><tspan x="0" y="0">Cloudflare Durable Object</tspan></text>
    <g>
      <rect class="cls-2" x="853" y="11" width="372" height="57" rx="12.6" ry="12.6"/>
      <text class="cls-4" transform="translate(869 51.49)"><tspan x="0" y="0">current slide </tspan></text>
      <text class="cls-6" transform="translate(1166.08 51.49)"><tspan x="0" y="0">24</tspan></text>
    </g>
    <g>
      <g>
        <line class="cls-8" x1="585.83" y1="326.41" x2="585.83" y2="173"/>
        <polygon class="cls-14" points="614.46 303.21 609.34 298.44 585.84 323.72 562.34 298.44 557.21 303.21 585.84 334 614.46 303.21"/>
      </g>
      <g>
        <line class="cls-8" x1="647.83" y1="180.59" x2="647.83" y2="334"/>
        <polygon class="cls-14" points="619.2 203.79 624.33 208.56 647.83 183.28 671.33 208.56 676.46 203.79 647.83 173 619.2 203.79"/>
      </g>
    </g>
    <text class="cls-11" transform="translate(1009.12 717.83)"><tspan x="0" y="0">client</tspan></text>
    <rect class="cls-13" x="893.33" y="309" width="341" height="339.94" rx="12.6" ry="12.6"/>
    <rect class="cls-3" x="918.83" y="439" width="290" height="179" rx="12.6" ry="12.6"/>
    <g>
      <rect class="cls-5" x="918.83" y="334" width="194" height="79" rx="12.6" ry="12.6"/>
      <text class="cls-11" transform="translate(941.36 385.83)"><tspan x="0" y="0">PartyKit</tspan></text>
    </g>
    <path class="cls-2" d="M1204.26,344.45h0c-7.34-10.5-21.83-13.61-32.31-6.94l-18.4,11.73c-5.03,3.16-8.49,8.29-9.54,14.14-.88,4.87-.11,9.89,2.19,14.27-1.57,2.39-2.65,5.07-3.16,7.89-1.06,5.96.33,12.09,3.84,17.01,7.34,10.5,21.83,13.61,32.31,6.94l18.4-11.73c5.03-3.16,8.49-8.29,9.54-14.14.88-4.87.11-9.89-2.19-14.27,1.57-2.39,2.65-5.07,3.16-7.89,1.06-5.96-.33-12.09-3.84-17.01ZM1199,359.51c-.11.58-.25,1.16-.44,1.72l-.35,1.06-.94-.69c-2.18-1.6-4.61-2.82-7.2-3.6l-.68-.21.06-.68c.08-.97-.18-1.94-.74-2.74-1.05-1.52-2.94-2.22-4.72-1.75-.4.11-.78.27-1.13.5l-18.4,11.73c-.91.57-1.54,1.5-1.73,2.56-.19,1.08.06,2.19.7,3.08,1.05,1.52,2.94,2.22,4.73,1.75.4-.11.78-.27,1.13-.5l7.02-4.47c1.15-.74,2.41-1.29,3.74-1.64,5.93-1.54,12.19.78,15.69,5.82,2.12,2.96,2.95,6.65,2.31,10.23-.63,3.51-2.71,6.6-5.74,8.5l-18.4,11.73c-1.16.74-2.42,1.29-3.74,1.64h0c-5.93,1.54-12.19-.78-15.69-5.82-2.12-2.96-2.95-6.65-2.31-10.23.11-.58.25-1.16.44-1.72l.35-1.06.94.69c2.18,1.6,4.61,2.82,7.2,3.6l.68.21-.06.68c-.08.97.18,1.94.74,2.74,1.05,1.52,2.94,2.22,4.72,1.75.4-.11.78-.27,1.13-.5l18.4-11.73c.91-.57,1.54-1.5,1.73-2.56.19-1.08-.06-2.19-.7-3.08-1.05-1.52-2.94-2.22-4.73-1.75-.4.11-.78.27-1.13.5l-7.02,4.48c-1.15.73-2.41,1.29-3.74,1.64-5.93,1.54-12.19-.78-15.69-5.82-2.12-2.96-2.95-6.65-2.31-10.23.63-3.51,2.71-6.6,5.74-8.5l18.4-11.73c1.16-.74,2.42-1.29,3.74-1.64,5.93-1.54,12.19.78,15.69,5.82,2.12,2.96,2.95,6.65,2.31,10.23Z"/>
    <text class="cls-11" transform="translate(941.36 595.83)"><tspan x="0" y="0">remote</tspan></text>
    <g>
      <g>
        <line class="cls-8" x1="984.83" y1="326.41" x2="984.83" y2="173"/>
        <polygon class="cls-14" points="1013.46 303.21 1008.34 298.44 984.84 323.72 961.34 298.44 956.21 303.21 984.84 334 1013.46 303.21"/>
      </g>
      <g>
        <line class="cls-8" x1="1046.83" y1="132.59" x2="1046.83" y2="334"/>
        <polygon class="cls-14" points="1018.2 155.79 1023.33 160.56 1046.83 135.28 1070.33 160.56 1075.46 155.79 1046.83 125 1018.2 155.79"/>
      </g>
    </g>
    <text class="cls-12" transform="translate(66.99 486.63)"><tspan x="0" y="0" xml:space="preserve">generate id  </tspan><tspan x="27.69" y="36">+ secret</tspan></text>
    <g>
      <line class="cls-10" x1="1029" y1="156" x2="1065" y2="192"/>
      <line class="cls-10" x1="1065" y1="156" x2="1029" y2="192"/>
    </g>
  </g>
</svg>